<svg width="102" height="66" viewBox="0 0 102 66" fill="none" xmlns="http://www.w3.org/2000/svg">
<path d="M28.308 35.9507V35.5578C28.308 33.9985 27.0573 32.7351 25.5136 32.7351H20.8432V31.6061C20.8432 28.965 18.7161 26.8188 16.1039 26.8188H12.2041C9.59192 26.8188 7.46476 28.9675 7.46476 31.6061V32.7351H2.79436C1.25069 32.7351 0 33.9985 0 35.5578V35.9507C0 36.468 0.416077 36.8883 0.928171 36.8883H27.3823C27.8944 36.8883 28.3105 36.468 28.3105 35.9507H28.308ZM17.847 32.7376H10.461V31.6086C10.461 30.6362 11.2439 29.8478 12.2041 29.8478H16.1039C17.0665 29.8478 17.847 30.6387 17.847 31.6086V32.7376Z" fill="white"/>
<path d="M23.7188 42.3396V41.9417C23.7188 40.8574 24.0684 39.8502 24.6642 39.0345H2.73774L4.15092 56.0449C4.31095 58.0618 5.97772 59.6161 7.98424 59.6161H20.3238C22.3303 59.6161 23.997 58.0618 24.1669 56.0449L25.0803 44.9011C24.2629 44.344 23.7213 43.399 23.7213 42.3371L23.7188 42.3396ZM8.91734 55.9927H8.84348C8.12211 55.9927 7.52631 55.4232 7.48446 54.6945L6.88866 44.1078C6.8468 43.3468 7.42045 42.7027 8.17382 42.6604C8.92719 42.6181 9.56484 43.1976 9.6067 43.9585L10.2 54.5354C10.2419 55.2964 9.66825 55.9504 8.91488 55.9952L8.91734 55.9927ZM15.513 54.6199C15.513 55.371 14.9074 55.9927 14.154 55.9927C13.4006 55.9927 12.795 55.371 12.795 54.6199V44.0332C12.795 43.2722 13.4006 42.6604 14.154 42.6604C14.9074 42.6604 15.513 43.2722 15.513 44.0332V54.6199ZM20.8211 54.6945C20.7792 55.4232 20.1834 55.9927 19.4621 55.9927H19.3882C18.6348 55.9504 18.0612 55.2964 18.103 54.5329L18.6964 43.9561C18.7382 43.1951 19.3857 42.6156 20.1293 42.6579C20.8826 42.7002 21.4563 43.3443 21.4144 44.1053L20.8186 54.692L20.8211 54.6945Z" fill="white"/>
<path d="M72.5328 32.7376V31.6086C72.5328 28.9675 70.4056 26.8213 67.7934 26.8213H63.8936C61.2815 26.8213 59.1543 28.97 59.1543 31.6086V32.7376H54.4839C52.9402 32.7376 51.6895 34.001 51.6895 35.5603V35.9532C51.6895 36.4705 52.1056 36.8908 52.6177 36.8908H79.0718C79.5839 36.8908 80 36.4705 80 35.9532V35.5603C80 34.001 78.7493 32.7376 77.2056 32.7376H72.5328ZM69.5365 32.7376H62.1506V31.6086C62.1506 30.6362 62.9335 29.8478 63.8936 29.8478H67.7934C68.7561 29.8478 69.5365 30.6387 69.5365 31.6086V32.7376Z" fill="white"/>
<path d="M56.2762 41.9417V42.3396C56.2762 43.4015 55.7346 44.3465 54.9172 44.9036L55.8405 56.0474C56.0005 58.0643 57.6673 59.6186 59.6738 59.6186H72.0133C74.0198 59.6186 75.6866 58.0643 75.8466 56.0474L77.2598 39.037H55.3333C55.9291 39.8527 56.2787 40.8599 56.2787 41.9442L56.2762 41.9417ZM70.3884 43.9585C70.4302 43.1976 71.0777 42.6181 71.8213 42.6604C72.5746 42.7027 73.1483 43.3468 73.1064 44.1078L72.5106 54.6945C72.4688 55.4232 71.873 55.9927 71.1516 55.9927H71.0777C70.3244 55.9504 69.7507 55.2964 69.7926 54.5329L70.3884 43.9561V43.9585ZM64.4845 44.0332C64.4845 43.2722 65.0902 42.6604 65.8435 42.6604C66.5969 42.6604 67.2026 43.2722 67.2026 44.0332V54.6199C67.2026 55.371 66.5969 55.9927 65.8435 55.9927C65.0902 55.9927 64.4845 55.371 64.4845 54.6199V44.0332ZM59.8634 42.6604C60.6069 42.6181 61.2544 43.1976 61.2962 43.9585L61.892 54.5354C61.9339 55.2964 61.3602 55.9504 60.6069 55.9952H60.533C59.8117 55.9952 59.2159 55.4257 59.174 54.697L58.5782 44.1102C58.5363 43.3493 59.11 42.7051 59.8634 42.6629V42.6604Z" fill="white"/>
<path d="M46.6868 39.124V37.9949C46.6868 35.3563 44.5596 33.2077 41.9474 33.2077H38.0476C35.433 33.2077 33.3083 35.3563 33.3083 37.9949V39.124H28.6379C27.0942 39.124 25.8435 40.3874 25.8435 41.9466V42.3396C25.8435 42.8568 26.2596 43.2771 26.7717 43.2771H53.2258C53.7379 43.2771 54.154 42.8568 54.154 42.3396V41.9466C54.154 40.3874 52.9033 39.124 51.3596 39.124H46.6868ZM36.307 39.124V37.9949C36.307 37.0226 37.0899 36.2342 38.0526 36.2342H41.9524C42.915 36.2342 43.6954 37.0251 43.6954 37.9949V39.124H36.307Z" fill="white"/>
<path d="M29.992 62.4338C30.1594 64.4482 31.8262 66 33.8278 66H46.1673C48.1689 66 49.8381 64.4507 50.0031 62.4338L51.4113 45.4258H28.5813L29.9895 62.4338H29.992ZM44.5424 50.3424C44.5842 49.5839 45.2317 49.0045 45.9802 49.0468C46.7311 49.089 47.3047 49.7381 47.2629 50.4966L46.6695 61.0784C46.6301 61.8096 46.0294 62.3766 45.313 62.3766C45.2859 62.3766 45.2613 62.3766 45.2342 62.3766C44.4833 62.3343 43.9096 61.6852 43.9515 60.9267L44.5448 50.3449L44.5424 50.3424ZM38.6361 50.4195C38.6361 49.6585 39.2466 49.0443 39.9975 49.0443C40.7484 49.0443 41.359 49.6585 41.359 50.4195V61.0013C41.359 61.7598 40.7484 62.3766 39.9975 62.3766C39.2466 62.3766 38.6361 61.7598 38.6361 61.0013V50.4195ZM34.0149 49.0468C34.7683 49.0045 35.4084 49.5839 35.4502 50.3424L36.0436 60.9242C36.0854 61.6827 35.5118 62.3318 34.7609 62.3741C34.7338 62.3741 34.7092 62.3741 34.6821 62.3741C33.9657 62.3741 33.3649 61.8096 33.3231 61.0759L32.7297 50.4941C32.6879 49.7356 33.2615 49.0866 34.0124 49.0443L34.0149 49.0468Z" fill="white"/>
<path d="M13.3785 23.2252C13.7502 23.7301 14.5898 23.7251 14.9615 23.2252L19.5162 17.0378C19.7403 16.7344 19.7747 16.334 19.6073 15.9933C19.4424 15.66 19.0952 15.4437 18.7259 15.4437H15.6854V11.6636C15.6854 10.0645 16.9681 8.76883 18.5511 8.76883H38.2618V21.8301H35.2213C34.852 21.8301 34.5048 22.0464 34.3399 22.3797C34.2709 22.5214 34.234 22.6731 34.234 22.8298C34.234 23.0437 34.3029 23.2551 34.4285 23.4242L38.9857 29.6116C39.3574 30.1164 40.1994 30.1115 40.5712 29.6116L45.1283 23.4242C45.3524 23.1208 45.3868 22.7204 45.217 22.3797C45.052 22.0464 44.7073 21.8301 44.3356 21.8301H41.295V8.76883H61.4464C63.0295 8.76883 64.3122 10.0645 64.3122 11.6636V15.4437H61.2716C60.9023 15.4437 60.5552 15.66 60.3902 15.9933C60.3213 16.1326 60.2844 16.2867 60.2844 16.4434C60.2844 16.6573 60.3533 16.8687 60.4789 17.0378L65.036 23.2252C65.4078 23.7276 66.2473 23.7276 66.6191 23.2252L71.1738 17.0378C71.3978 16.7369 71.4323 16.3365 71.2648 15.9933C71.0999 15.66 70.7528 15.4437 70.3835 15.4437H67.3429V11.6636C67.3429 8.37341 64.7036 5.70745 61.4464 5.70745H41.295V1.53193C41.295 0.686386 40.6155 0 39.7809 0C38.9463 0 38.2643 0.686386 38.2643 1.53193V5.71242H18.5536C15.2964 5.71242 12.6571 8.37839 12.6571 11.6686V15.4487H9.61654C9.24725 15.4487 8.9001 15.665 8.73515 15.9983C8.66622 16.14 8.62929 16.2917 8.62929 16.4484C8.62929 16.6623 8.69822 16.8737 8.82378 17.0428L13.3809 23.2302L13.3785 23.2252Z" fill="white"/>
</svg>
