<svg width="80" height="82" viewBox="0 0 80 82" fill="none" xmlns="http://www.w3.org/2000/svg">
<path d="M15.9604 23.5452H5.49668C4.86354 23.5452 4.33439 24.0276 4.27016 24.6575L0.0063847 66.6106C-0.0670231 67.3418 0.501888 67.9748 1.23291 67.9748H21.5883L17.1869 24.6575C17.1226 24.0245 16.5935 23.5452 15.9604 23.5452Z" fill="white"/>
<path d="M42.641 56.2898L45.0176 55.5032L51.3246 44.5955C51.6947 44.0977 52.1779 43.7106 52.6979 43.3941C52.8203 42.9793 52.9854 42.5799 53.221 42.2081C53.9917 40.9514 55.31 40.1495 56.7659 40.0266L57.1238 39.9989H59.9561C62.5682 39.9989 65.0702 40.8562 67.1164 42.3587L64.9601 25.5301C64.8377 24.6176 63.807 24.1505 63.0484 24.6606L51.2298 32.6677L50.3366 25.5301C50.2143 24.6176 49.1835 24.1505 48.4127 24.6606L36.6063 32.6677L35.6979 25.5424C35.5878 24.6176 34.557 24.1474 33.7862 24.6575L22.1174 32.5817L25.7175 67.9687H38.1846C38.4323 67.1821 38.7627 66.4078 39.1878 65.6765L39.9311 64.3799C39.2306 63.3567 38.885 62.1031 39.0104 60.8187C39.2153 58.7325 40.6468 56.9534 42.638 56.2898H42.641ZM32.9787 48.5161C32.208 48.5161 31.5779 47.8955 31.5779 47.1212V42.1651C31.5779 41.3908 32.211 40.7701 32.9787 40.7701H41.7204C42.4912 40.7701 43.109 41.3908 43.109 42.1651V47.1212C43.109 47.8955 42.4912 48.5161 41.7204 48.5161H32.9787Z" fill="white"/>
<path d="M12.8375 15.8607C12.8375 14.6071 13.8499 13.59 15.0978 13.59H16.4834C17.0676 13.59 17.3 13.7805 18.0402 14.5794C18.8661 15.4705 20.114 16.8163 22.4569 16.8163C24.7999 16.8163 26.0448 15.4705 26.8737 14.5794C27.6138 13.7775 27.8463 13.59 28.4305 13.59C29.0147 13.59 29.2411 13.7775 29.9813 14.5794C30.8071 15.4705 32.052 16.8193 34.3949 16.8193C36.7378 16.8193 37.9796 15.4705 38.8055 14.5794C39.5457 13.7775 39.7751 13.59 40.3562 13.59C40.9374 13.59 41.1668 13.7775 41.907 14.5794C42.7328 15.4705 43.9746 16.8193 46.3176 16.8193C48.6605 16.8193 49.9023 15.4705 50.7281 14.5763C51.4622 13.7775 51.6947 13.59 52.2728 13.59C52.8509 13.59 53.0803 13.7775 53.8143 14.5763C54.6371 15.4705 55.882 16.8193 58.2188 16.8193C59.2955 16.8193 60.1672 15.9436 60.1672 14.8621C60.1672 13.7805 59.2955 12.9049 58.2188 12.9049C57.6438 12.9049 57.4144 12.7174 56.6803 11.9186C55.8575 11.0244 54.6126 9.67557 52.2758 9.67557C49.939 9.67557 48.6911 11.0244 47.8714 11.9155C47.1312 12.7174 46.9018 12.9049 46.3237 12.9049C45.7456 12.9049 45.5131 12.7174 44.7729 11.9155C43.9471 11.0244 42.7053 9.67557 40.3623 9.67557C38.0194 9.67557 36.7776 11.0244 35.9518 11.9155C35.2116 12.7174 34.9822 12.9049 34.401 12.9049C33.8199 12.9049 33.5874 12.7144 32.8472 11.9155C32.0214 11.0214 30.7796 9.67557 28.4366 9.67557C26.0937 9.67557 24.8458 11.0214 24.0199 11.9155C23.2797 12.7144 23.0473 12.9049 22.4631 12.9049C21.8789 12.9049 21.6464 12.7144 20.9062 11.9155C20.0804 11.0244 18.8324 9.67864 16.4895 9.67864H15.1039C14.3026 9.67864 13.544 9.84149 12.8436 10.1211V6.18511C12.8436 4.9315 13.856 3.91447 15.1039 3.91447H16.4895C17.0737 3.91447 17.3062 4.10497 18.0464 4.90385C18.8722 5.7949 20.1201 7.14069 22.4631 7.14069C24.806 7.14069 26.0509 5.7949 26.8798 4.90385C27.62 4.1019 27.8524 3.91447 28.4366 3.91447C29.0208 3.91447 29.2472 4.1019 29.9874 4.90385C30.8132 5.7949 32.0581 7.14376 34.401 7.14376C36.7439 7.14376 37.9858 5.7949 38.8116 4.90385C39.5518 4.1019 39.7812 3.91447 40.3623 3.91447C40.9435 3.91447 41.1729 4.1019 41.9131 4.90385C42.7389 5.7949 43.9807 7.14376 46.3237 7.14376C48.6666 7.14376 49.9084 5.7949 50.7343 4.90077C51.4683 4.1019 51.7008 3.91447 52.2789 3.91447C52.857 3.91447 53.0864 4.1019 53.8205 4.90077C54.6432 5.7949 55.8881 7.14376 58.2249 7.14376C59.3016 7.14376 60.1733 6.26807 60.1733 5.18652C60.1733 4.10497 59.3016 3.22929 58.2249 3.22929C57.6499 3.22929 57.4205 3.04186 56.6864 2.24299C55.8636 1.34886 54.6188 0 52.2819 0C49.9451 0 48.6972 1.34886 47.8775 2.23991C47.1373 3.04186 46.9079 3.22929 46.3298 3.22929C45.7517 3.22929 45.5192 3.04186 44.779 2.23991C43.9532 1.34886 42.7114 0 40.3685 0C38.0255 0 36.7837 1.34886 35.9579 2.23991C35.2177 3.04186 34.9883 3.22929 34.4071 3.22929C33.826 3.22929 33.5935 3.03879 32.8533 2.23991C32.0275 1.34579 30.7857 0 28.4427 0C26.0998 0 24.8519 1.34579 24.026 2.23991C23.2858 3.03879 23.0534 3.22929 22.4692 3.22929C21.885 3.22929 21.6525 3.03879 20.9123 2.23991C20.0865 1.34886 18.8386 0.00307258 16.4956 0.00307258H15.11C11.7088 0.00307258 8.94991 2.77454 8.94991 6.19126V20.3159H12.8497V15.8699L12.8375 15.8607Z" fill="white"/>
<path d="M59.9653 44.2022H57.1269C56.8057 44.2022 56.61 44.5924 56.7384 44.8505L63.3176 56.3174L61.7057 57.2238C60.8676 57.7431 60.9961 58.9721 61.8984 59.2978L69.5726 61.8235C70.2179 62.0171 70.9275 61.6299 71.056 60.9816L72.7321 53.0144C72.9248 52.0434 71.8941 51.2661 71.056 51.7823L69.4441 52.6887L66.8656 48.2181C65.4464 45.7569 62.8037 44.2022 59.9653 44.2022Z" fill="white"/>
<path d="M53.1292 67.7843C53.9673 68.3036 54.998 67.5262 54.8053 66.5522L53.1292 58.585C53.0007 57.9367 52.2911 57.5495 51.6457 57.7431L43.9716 60.2688C43.005 60.5914 42.8766 61.8235 43.7789 62.3427L45.3908 63.3137L42.8123 67.7843C41.3931 70.2454 41.3931 73.2904 42.8123 75.816L44.2316 78.2772C44.4242 78.5353 44.8127 78.5353 45.0054 78.2772L51.5203 66.8748L53.1323 67.7812L53.1292 67.7843Z" fill="white"/>
<path d="M79.5713 71.8647H66.4802V69.9873C66.4802 69.0164 65.318 68.4971 64.6114 69.1455L58.6134 74.587C58.0965 75.0417 58.0965 75.8191 58.6134 76.2708L64.6114 81.7123C65.321 82.3606 66.4802 81.8414 66.4802 80.8704V78.9931H71.6402C74.4786 78.9931 77.1213 77.4384 78.5405 74.9772L79.9598 72.5161C80.0882 72.258 79.8955 71.8678 79.5744 71.8678L79.5713 71.8647Z" fill="white"/>
<path d="M54.6769 47.1181L49.5169 56.0593L50.9361 55.6046C51.453 55.411 51.9669 55.3465 52.4838 55.4755C53.903 55.6691 55.0623 56.8367 55.3865 58.2624L55.6434 59.6235L58.9957 53.7917C59.0599 53.6627 59.0599 53.4691 58.9957 53.337L55.4477 47.1181C55.255 46.86 54.8665 46.86 54.6738 47.1181H54.6769Z" fill="white"/>
<path d="M58.1576 71.8647H51.45C51.3215 71.8647 51.1288 71.9292 51.0646 72.0583L47.4523 78.3417C47.2596 78.5998 47.5165 78.99 47.8377 78.99H58.0903L56.9923 77.9546C56.3469 77.3708 55.8973 76.3998 55.8973 75.4289C55.8973 74.458 56.2827 73.5515 56.9923 72.9032L58.1546 71.8678L58.1576 71.8647Z" fill="white"/>
<path d="M70.4779 64.1556C69.961 64.2201 69.4471 64.1556 68.9302 64.0265L67.511 63.5718L70.8633 69.4035C70.9275 69.5326 71.056 69.5971 71.2518 69.5971H78.4733C78.7944 69.5971 78.9902 69.2069 78.8586 68.9488L73.6987 60.0076L73.3775 61.3687C73.0564 62.7944 71.8941 63.9589 70.4749 64.1556H70.4779Z" fill="white"/>
</svg>
