<svg width="73" height="61" viewBox="0 0 73 61" fill="none" xmlns="http://www.w3.org/2000/svg">
<g clip-path="url(#clip0_182_131)">
<path d="M29.926 5.59606H30.823V0.595215H29.2988V1.44742H29.926V5.59606Z" fill="#005551"/>
<path d="M31.7679 4.04605C31.7659 4.48392 31.9361 4.90492 32.2416 5.21775C32.5471 5.53058 32.9633 5.71002 33.3999 5.71713C33.8365 5.72425 34.2583 5.55847 34.5738 5.25576C34.8893 4.95305 35.073 4.53782 35.0852 4.10011C35.1026 3.83867 35.0437 3.57782 34.9156 3.34946C34.7875 3.1211 34.5957 2.93514 34.3639 2.81434C34.4986 2.699 34.605 2.55421 34.6751 2.39111C34.7452 2.22801 34.7771 2.05096 34.7682 1.87358C34.7709 1.69596 34.7388 1.51955 34.6735 1.3544C34.6083 1.18926 34.5112 1.03862 34.3879 0.911087C34.2646 0.783553 34.1175 0.681623 33.9549 0.611117C33.7923 0.54061 33.6175 0.502908 33.4404 0.500163C33.4334 0.500054 33.4264 0.5 33.4194 0.5C33.245 0.500643 33.0725 0.535717 32.9117 0.603222C32.7508 0.670727 32.6048 0.769339 32.482 0.893429C32.3592 1.01752 32.2619 1.16466 32.1958 1.32644C32.1297 1.48822 32.096 1.66149 32.0966 1.83633C32.0967 1.85554 32.0971 1.87474 32.098 1.89392C32.0893 2.06834 32.1214 2.24239 32.1916 2.40219C32.2618 2.56199 32.3683 2.70312 32.5026 2.81434C32.2753 2.92747 32.0852 3.1037 31.955 3.32206C31.8247 3.54043 31.7598 3.79173 31.7679 4.04605ZM33.4397 1.37975C33.5764 1.3794 33.7077 1.43325 33.805 1.52956C33.9023 1.62587 33.9577 1.75683 33.9591 1.89392C33.9593 2.03278 33.9049 2.16612 33.8076 2.26495C33.7104 2.36378 33.5781 2.42012 33.4397 2.42172C33.2999 2.42052 33.1661 2.36472 33.0666 2.26617C32.9672 2.16762 32.91 2.03409 32.9071 1.89392C32.9117 1.75555 32.9698 1.62441 33.0693 1.52839C33.1687 1.43237 33.3016 1.37905 33.4397 1.37975ZM33.4263 3.3017C33.6294 3.30272 33.8239 3.38463 33.9668 3.52939C34.1097 3.67415 34.1894 3.86992 34.1884 4.07362L34.1882 4.08647C34.1842 4.23612 34.1364 4.3813 34.0509 4.50398C33.9653 4.62665 33.8457 4.72142 33.7069 4.77652C33.5681 4.83161 33.4162 4.8446 33.2701 4.81388C33.1239 4.78316 32.99 4.71007 32.885 4.6037C32.7799 4.49733 32.7084 4.36236 32.6791 4.21555C32.6499 4.06873 32.6643 3.91655 32.7206 3.77788C32.7769 3.63922 32.8726 3.52019 32.9957 3.43557C33.1189 3.35094 33.2641 3.30446 33.4134 3.30189L33.4263 3.3017Z" fill="#005551"/>
<path d="M37.3833 5.71724C37.8445 5.71217 38.2847 5.52361 38.6072 5.19303C38.9297 4.86245 39.1081 4.41693 39.103 3.95448L39.1028 3.93763C39.1115 3.71998 39.0773 3.50275 39.0021 3.29838C38.927 3.09401 38.8124 2.90651 38.6649 2.74661C38.5335 2.60213 38.3744 2.48571 38.1971 2.40431C38.0199 2.32292 37.828 2.27821 37.6331 2.27288L37.3833 2.29322L38.4961 0.594727H37.4379L36.015 2.77364C35.7815 3.1145 35.6546 3.51741 35.6505 3.93093C35.6361 4.39004 35.8042 4.83607 36.1178 5.17091C36.4313 5.50575 36.8647 5.70196 37.3225 5.71639C37.3428 5.71703 37.363 5.71731 37.3833 5.71724ZM37.3702 3.10524C37.5982 3.1116 37.8144 3.20853 37.9711 3.37471C38.1278 3.54088 38.2123 3.76269 38.206 3.99134C38.2086 4.21148 38.1241 4.42407 37.9711 4.58192C37.818 4.73976 37.6089 4.83038 37.3893 4.83394C37.1698 4.83751 36.9578 4.75373 36.7998 4.60093C36.6417 4.44814 36.5504 4.23878 36.5459 4.01866C36.5456 3.99617 36.5461 3.9737 36.5476 3.95124C36.5448 3.84295 36.5633 3.73517 36.6021 3.63406C36.6409 3.53294 36.6991 3.44048 36.7735 3.36195C36.8479 3.28341 36.937 3.22034 37.0357 3.17634C37.1345 3.13234 37.2408 3.10826 37.3488 3.10549C37.356 3.1053 37.3631 3.10524 37.3702 3.10524Z" fill="#005551"/>
<path d="M41.2501 1.37958C41.3418 1.37733 41.433 1.39323 41.5186 1.42635C41.6042 1.45947 41.6824 1.50917 41.7489 1.57261C41.8153 1.63606 41.8686 1.712 41.9058 1.79611C41.943 1.88022 41.9632 1.97084 41.9655 2.06281C41.9659 2.07871 41.9657 2.09461 41.965 2.11051C41.9428 2.31543 41.8771 2.51321 41.7724 2.6906C41.6678 2.86799 41.5265 3.0209 41.3581 3.13908L39.6384 4.74307V5.59578H42.8611V4.74307H40.8925L41.8432 3.89059L42.4704 3.22713C42.7181 2.92307 42.8558 2.54381 42.8611 2.1512C42.8623 1.93529 42.821 1.72126 42.7396 1.52136C42.6582 1.32146 42.5384 1.13961 42.3868 0.986208C42.2353 0.832806 42.0551 0.710863 41.8566 0.627353C41.658 0.543844 41.445 0.500407 41.2297 0.499525C41.0144 0.498644 40.8011 0.540337 40.6018 0.622218C40.4026 0.704099 40.2214 0.824563 40.0687 0.97672C39.9159 1.12888 39.7946 1.30974 39.7116 1.50897C39.6286 1.70819 39.5855 1.92188 39.585 2.13779V2.32059H40.4813C40.4603 2.2067 40.4643 2.08958 40.4931 1.97742C40.5219 1.86525 40.5747 1.76072 40.6479 1.67113C40.7211 1.58154 40.8129 1.50904 40.9169 1.45869C41.0209 1.40833 41.1346 1.38133 41.2501 1.37958Z" fill="#005551"/>
<path d="M39.7551 28.5096L40.3429 26.5267L39.1374 21.2441L43.7718 16.5929H38.0759L37.4876 14.0159C37.7355 13.7125 37.8718 13.3329 37.8737 12.9407C37.8618 12.4716 37.6676 12.0258 37.3325 11.6983C36.9975 11.3708 36.5481 11.1875 36.0803 11.1875C35.6124 11.1875 35.163 11.3708 34.828 11.6983C34.4929 12.0258 34.2987 12.4716 34.2868 12.9407C34.2887 13.3328 34.425 13.7124 34.673 14.0157L34.0846 16.5929H28.3887L33.0231 21.2446L31.8176 26.5267L32.4054 28.5097L33.8696 22.0942L36.0799 24.3129L38.2909 22.0937L39.7551 28.5096ZM41.3234 17.6107L38.8699 20.0729L38.3081 17.6107H41.3234ZM33.2903 20.0734L30.8369 17.6107H33.8524L33.2903 20.0734ZM36.0801 12.1731C36.2307 12.177 36.3768 12.2253 36.5001 12.312C36.6235 12.3987 36.7186 12.5199 36.7736 12.6605C36.8285 12.8012 36.8409 12.9549 36.8092 13.1026C36.7774 13.2503 36.703 13.3853 36.5951 13.4907C36.4872 13.5961 36.3508 13.6673 36.2028 13.6953C36.0548 13.7234 35.9018 13.707 35.763 13.6483C35.6242 13.5896 35.5058 13.4912 35.4225 13.3653C35.3392 13.2394 35.2949 13.0917 35.2949 12.9407C35.2976 12.7345 35.3818 12.5378 35.529 12.3939C35.6763 12.2499 35.8745 12.1705 36.0801 12.1731ZM35.5764 14.6155C35.9041 14.7204 36.2563 14.7204 36.5841 14.6155L37.0353 16.5929H35.1252L35.5764 14.6155ZM36.0799 22.8732L34.1368 20.923L34.8927 17.6107H37.2678L38.0234 20.9225L36.0799 22.8732Z" fill="#005551"/>
<path d="M10.3726 32.6647H8.71989L9.8944 31.9139L14.3844 31.9142V27.3757L18.0445 28.9873V34.3924L20.1394 34.3912L21.56 35.8167H26.4995L26.5009 32.6655H23.6782L23.2492 30.8289L24.4315 27.4621L20.3223 23.3378L15.997 23.3394L19.4562 21.1301L26.6194 22.7508V29.333L36.0799 34.6042L45.5407 29.3331V22.7509L52.7039 21.1301L56.1629 23.3395L51.8379 23.3378L47.7286 27.4621L48.9107 30.8289L48.4816 32.6655H45.6592L45.6606 35.8167H50.6002L52.0205 34.3912L54.1156 34.3924V28.9874L57.7758 27.3757V31.9142L62.2658 31.914L63.4403 32.6648H61.7875V35.8172H67.8368V28.4844H62.835V26.4407C63.0831 26.5264 63.3435 26.5709 63.6059 26.5725C64.0621 26.5722 64.5086 26.4407 64.8925 26.1937C65.2763 25.9466 65.5816 25.5944 65.7719 25.1787C65.9623 24.763 66.0298 24.3013 65.9664 23.8483C65.9031 23.3953 65.7116 22.97 65.4146 22.6229L65.4119 22.6183C65.0548 22.1836 62.5628 19.3838 62.5628 19.3838C62.2361 19.0094 62.0129 18.5557 61.9155 18.0678C61.818 17.58 61.8498 17.0751 62.0076 16.6034C62.1653 16.1317 62.4436 15.7097 62.8146 15.3795C63.1857 15.0492 63.6365 14.8222 64.1223 14.7211C64.1897 14.7074 64.2594 14.7097 64.3258 14.7278C64.3922 14.7459 64.4534 14.7793 64.5047 14.8253C64.5559 14.8714 64.5957 14.9288 64.6209 14.993C64.6461 15.0572 64.656 15.1264 64.6498 15.1951C64.6502 15.2642 64.6348 15.3325 64.605 15.3948C64.5751 15.4571 64.5315 15.5118 64.4775 15.5547L64.4713 15.5573L64.4596 15.5693C64.1913 15.7498 63.9627 15.9835 63.7878 16.256C63.613 16.5285 63.4957 16.8341 63.443 17.1538C63.3904 17.4735 63.4036 17.8006 63.4818 18.115C63.56 18.4294 63.7015 18.7244 63.8977 18.9818C64.0939 19.2393 64.3406 19.4537 64.6226 19.612C64.9046 19.7702 65.2159 19.8688 65.5373 19.9019C65.8587 19.9349 66.1835 19.9016 66.4916 19.8039C66.7997 19.7063 67.0846 19.5465 67.3288 19.3342L67.3159 19.3268C67.2584 19.3384 67.1998 19.343 67.1412 19.3405C66.9641 19.3403 66.7909 19.2882 66.6429 19.1906C66.4949 19.093 66.3786 18.9542 66.3082 18.7913C66.2379 18.6283 66.2165 18.4483 66.2468 18.2733C66.2771 18.0983 66.3577 17.936 66.4787 17.8063L66.4821 17.7987C66.6929 17.5993 66.8802 17.3763 67.0403 17.134C67.2024 16.8458 67.3019 16.5265 67.3321 16.197C67.3623 15.8675 67.3227 15.5354 67.2157 15.2223C67.1088 14.9093 66.937 14.6225 66.7117 14.3809C66.4863 14.1392 66.2125 13.9481 65.9083 13.8201C65.6808 13.7347 65.444 13.6766 65.2029 13.6471C64.4375 13.5459 63.6595 13.6758 62.9682 14.0202C62.2768 14.3647 61.7036 14.9081 61.3218 15.5809C60.94 16.2537 60.7668 17.0254 60.8246 17.7974C60.8823 18.5694 61.1683 19.3065 61.6459 19.9147C61.6648 19.9487 64.2746 22.8851 64.6033 23.2863L64.6093 23.2923L64.6133 23.2976C64.7355 23.4377 64.8272 23.6017 64.8827 23.7792C64.9382 23.9568 64.9563 24.144 64.9357 24.3289C64.9151 24.5139 64.8564 24.6925 64.7633 24.8534C64.6702 25.0144 64.5447 25.1541 64.3948 25.2638C64.2449 25.3735 64.0739 25.4507 63.8926 25.4905C63.7113 25.5303 63.5238 25.5318 63.3419 25.495C63.16 25.4582 62.9878 25.3838 62.8361 25.2766C62.6844 25.1694 62.5567 25.0317 62.4609 24.8723L62.4559 24.8659L59.2213 18.5571C59.6775 17.846 59.8717 16.9974 59.7703 16.1579C59.6689 15.3185 59.2784 14.5409 58.6661 13.9595C58.9737 13.9228 59.2573 13.7747 59.4637 13.5431C59.67 13.3114 59.7849 13.0121 59.7868 12.7015L59.7956 11.9878C59.7971 11.8532 59.7452 11.7235 59.6514 11.6273C59.5575 11.5311 59.4294 11.4761 59.2952 11.4746C59.2929 11.4746 59.2906 11.4746 59.2883 11.4746L58.0678 11.4727C58.001 11.4728 57.937 11.4463 57.8898 11.399C57.8425 11.3518 57.8159 11.2876 57.8158 11.2207C57.8158 11.1538 57.8422 11.0896 57.8893 11.0422C57.9364 10.9948 58.0004 10.9682 58.0671 10.9681H58.0678L60.4387 10.9662C60.6217 10.9661 60.8029 10.9298 60.972 10.8595C61.141 10.7892 61.2946 10.6862 61.4239 10.5564C61.5533 10.4265 61.6558 10.2724 61.7258 10.1028C61.7957 9.93323 61.8317 9.75149 61.8316 9.56797L61.8302 7.99607H56.2065C56.3454 7.65959 56.3995 7.29398 56.3639 6.93156C56.3284 6.56913 56.2044 6.22108 56.0028 5.91816C55.8012 5.61525 55.5283 5.36682 55.2082 5.19484C54.8881 5.02286 54.5307 4.93263 54.1676 4.93213C54.0339 4.93187 53.9056 4.98462 53.8105 5.07888C53.7155 5.17313 53.6615 5.30125 53.6603 5.43529C53.6582 5.63507 53.657 5.89227 53.657 6.1777C53.657 6.76077 53.661 7.45917 53.6624 7.99774C53.3852 7.99558 52.9826 8.00205 52.9826 8.00205C51.9774 8.04195 50.9958 8.31892 50.1174 8.81048C49.239 9.30204 48.4886 9.99435 47.9269 10.8312C47.3653 11.6681 47.0083 12.626 46.8849 13.6271C46.7615 14.6283 46.8752 15.6445 47.2168 16.5933H45.5407V8.00587H26.6194V16.5933H24.9434C25.2849 15.6445 25.3986 14.6283 25.2753 13.6271C25.1519 12.626 24.7949 11.6681 24.2332 10.8312C23.6716 9.99435 22.9211 9.30204 22.0427 8.81048C21.1643 8.31892 20.1827 8.04195 19.1776 8.00205C19.1776 8.00205 18.7749 7.99558 18.4977 7.99774C18.4991 7.45917 18.5032 6.76077 18.5032 6.1777C18.5032 5.89227 18.502 5.63507 18.4996 5.43529C18.4984 5.30129 18.4444 5.1732 18.3495 5.07895C18.2545 4.98469 18.1262 4.93192 17.9926 4.93213C17.6294 4.93262 17.272 5.02285 16.9519 5.19483C16.6318 5.3668 16.3589 5.61524 16.1573 5.91815C15.9557 6.22106 15.8317 6.56913 15.7962 6.93155C15.7607 7.29397 15.8147 7.65959 15.9537 7.99607H10.3299L10.3285 9.56776C10.3284 9.75128 10.3643 9.93302 10.4342 10.1026C10.5041 10.2722 10.6066 10.4263 10.7359 10.5562C10.8652 10.6861 11.0188 10.7891 11.1878 10.8595C11.3568 10.9298 11.538 10.9661 11.721 10.9662L14.0923 10.9681C14.1591 10.9681 14.2231 10.9947 14.2702 11.042C14.3174 11.0893 14.3439 11.1535 14.3439 11.2204C14.3439 11.2873 14.3174 11.3515 14.2702 11.3988C14.2231 11.4461 14.1591 11.4727 14.0923 11.4727L12.8716 11.4746C12.7375 11.4742 12.6087 11.5273 12.5136 11.6221C12.4185 11.717 12.3649 11.8458 12.3645 11.9803C12.3645 11.9828 12.3645 11.9853 12.3645 11.9878L12.3727 12.7015H12.3734C12.3752 13.0121 12.4901 13.3114 12.6964 13.5431C12.9028 13.7747 13.1864 13.9228 13.494 13.9595C12.8817 14.5409 12.4912 15.3185 12.3898 16.1579C12.2884 16.9974 12.4826 17.846 12.9388 18.5571L9.70393 24.8659L9.69916 24.8723C9.60333 25.0315 9.47553 25.169 9.32389 25.276C9.17224 25.383 9.00006 25.4572 8.81829 25.4939C8.63651 25.5306 8.44911 25.529 8.26799 25.4892C8.08687 25.4493 7.91599 25.3722 7.7662 25.2626C7.6164 25.153 7.49098 25.0133 7.39788 24.8525C7.30479 24.6917 7.24606 24.5133 7.22542 24.3285C7.20479 24.1437 7.22271 23.9566 7.27803 23.7791C7.33336 23.6016 7.42488 23.4376 7.54679 23.2975L7.55061 23.2923L7.5568 23.2863C7.88554 22.8851 10.4951 19.9487 10.5142 19.9147C10.9939 19.307 11.2817 18.5695 11.3405 17.7967C11.3993 17.0239 11.2264 16.2512 10.8442 15.5776C10.4619 14.904 9.88764 14.3603 9.19508 14.0163C8.50251 13.6724 7.72325 13.5438 6.9573 13.6471C6.7161 13.6766 6.47925 13.7346 6.25168 13.8201C5.9474 13.948 5.67357 14.1391 5.44821 14.3808C5.22285 14.6225 5.05107 14.9093 4.94415 15.2223C4.83724 15.5354 4.79762 15.8675 4.8279 16.197C4.85818 16.5265 4.95767 16.8459 5.11983 17.134C5.27988 17.3763 5.46722 17.5993 5.67813 17.7987L5.68147 17.8063C5.80241 17.936 5.88294 18.0983 5.91318 18.2733C5.94341 18.4482 5.92204 18.6282 5.85168 18.7912C5.78132 18.9541 5.66503 19.0929 5.51711 19.1905C5.36918 19.288 5.19606 19.3402 5.019 19.3405C4.96041 19.343 4.90172 19.3384 4.84423 19.3268L4.83113 19.3343C5.07535 19.546 5.3602 19.7055 5.66815 19.8028C5.97611 19.9001 6.30066 19.9332 6.62184 19.9C6.94302 19.8668 7.25403 19.7681 7.53575 19.6099C7.81748 19.4517 8.06394 19.2374 8.26 18.9802C8.45605 18.7229 8.59755 18.4281 8.67578 18.114C8.75401 17.7998 8.76732 17.473 8.7149 17.1535C8.66247 16.834 8.54542 16.5286 8.37094 16.2562C8.19646 15.9837 7.96824 15.75 7.70032 15.5693L7.68887 15.5573L7.68243 15.5547C7.62848 15.5117 7.58495 15.457 7.5551 15.3947C7.52524 15.3324 7.50986 15.2642 7.51008 15.1951C7.50393 15.1264 7.51387 15.0572 7.5391 14.993C7.56433 14.9288 7.60417 14.8714 7.65542 14.8253C7.70668 14.7793 7.76794 14.7459 7.83434 14.7278C7.90074 14.7097 7.97043 14.7074 8.03786 14.7211C8.52363 14.8222 8.97449 15.0492 9.34553 15.3795C9.71656 15.7098 9.99481 16.1318 10.1526 16.6035C10.3103 17.0752 10.342 17.5801 10.2446 18.0679C10.1471 18.5557 9.9239 19.0094 9.59714 19.3838C9.59714 19.3838 7.10507 22.1836 6.74821 22.6183L6.74559 22.6229C6.44859 22.97 6.25707 23.3953 6.19372 23.8482C6.13038 24.3012 6.19787 24.7629 6.38819 25.1786C6.57851 25.5943 6.88369 25.9465 7.26755 26.1936C7.65141 26.4406 8.09785 26.5721 8.55397 26.5725C8.81646 26.5709 9.07694 26.5264 9.32514 26.4407V28.4844H4.32336V35.8172H10.3726V32.6647ZM64.9998 16.4703L65.0307 16.4538C65.2817 16.2846 65.4762 16.0436 65.5887 15.7621C65.7013 15.4806 65.7269 15.1716 65.662 14.8754C65.7541 14.929 65.8393 14.9936 65.9159 15.0678C66.0362 15.1885 66.1316 15.3318 66.1967 15.4895C66.2618 15.6472 66.2952 15.8162 66.2952 15.9869C66.2951 16.1576 66.2615 16.3266 66.1963 16.4842C66.1311 16.6419 66.0356 16.7851 65.9152 16.9058C65.887 16.9341 65.8575 16.961 65.8267 16.9866C65.6294 17.1147 65.4626 17.2852 65.3383 17.4854C65.214 17.6856 65.1353 17.9108 65.1078 18.1449C65.0946 18.3637 65.1483 18.5812 65.2615 18.7687C65.0436 18.6788 64.8538 18.5319 64.7118 18.3434C64.5698 18.155 64.4808 17.9317 64.454 17.697C64.4273 17.4623 64.4638 17.2247 64.5598 17.0089C64.6558 16.7932 64.8077 16.6071 64.9998 16.4703ZM57.7758 26.2284L53.0684 28.3007V33.3418L51.6307 33.3428L50.2128 34.7661H46.7067V33.716H49.3112L49.9969 30.7799L48.9263 27.7501L48.9129 27.7128L52.2272 24.3864L57.7758 24.3867L57.7758 26.2284ZM61.7875 25.8734V29.5352H66.7895V34.7664H62.835V33.7156H65.3919V32.6655L62.573 30.8641L58.8225 30.8634V23.7926L54.1392 20.8016C55.0727 20.5865 55.8873 20.3978 56.4504 20.2628C56.8389 20.1695 57.2883 20.0547 57.2883 20.0547C57.7218 19.9131 58.1248 19.6907 58.4759 19.3991L61.7875 25.8734ZM54.6732 6.06547C54.7987 6.12341 54.9131 6.20311 55.011 6.30089C55.235 6.52542 55.3609 6.82999 55.3609 7.1476C55.361 7.4652 55.2353 7.76983 55.0114 7.99446L55.011 7.99484C54.9121 8.09067 54.798 8.1692 54.6732 8.22716C54.672 7.66705 54.6732 6.06547 54.6732 6.06547ZM54.4729 9.58759C54.8119 9.24744 55.2632 9.04337 55.7418 9.01385H60.8213L60.8177 9.56534V9.56776C60.8176 9.66857 60.7776 9.76521 60.7066 9.83655C60.6356 9.90789 60.5392 9.94811 60.4387 9.94842L58.0351 9.94961V9.95463C57.7046 9.96893 57.3923 10.1105 57.1632 10.3498C56.934 10.5892 56.8058 10.9079 56.805 11.2397C56.8025 11.4 56.8316 11.5592 56.8907 11.7082C56.9497 11.8572 57.0375 11.9931 57.149 12.108C57.3432 12.2971 57.5915 12.4206 57.8592 12.4611C57.9168 12.468 57.9749 12.4712 58.0329 12.4707L58.7779 12.4688L58.776 12.6958C58.7757 12.7658 58.7479 12.8329 58.6985 12.8824C58.6491 12.9319 58.5822 12.9598 58.5123 12.96C58.5109 12.96 55.8276 12.9643 55.7451 12.9645C55.3659 12.9406 55.0015 12.8074 54.6958 12.581C54.3901 12.3546 54.1561 12.0445 54.0218 11.688C53.8875 11.3315 53.8586 10.9437 53.9386 10.5711C54.0186 10.1986 54.2042 9.85704 54.4729 9.58759ZM53.055 10.0023C52.942 10.3189 52.8839 10.6526 52.8833 10.989C52.8831 11.7293 53.1563 12.4436 53.6502 12.9939C54.1441 13.5442 54.8237 13.8916 55.558 13.9691C55.5922 13.9763 55.627 13.98 55.6619 13.9801C55.6815 13.9801 56.1304 13.9794 56.2557 13.9792C56.8682 13.9989 57.4541 14.2341 57.911 14.6435C58.3679 15.0529 58.6666 15.6105 58.7548 16.2186C58.8429 16.8266 58.715 17.4464 58.3933 17.9694C58.0716 18.4923 57.5767 18.8851 56.9952 19.079C56.5097 19.2242 56.0069 19.3036 55.5003 19.3149C54.4037 19.3147 53.338 18.9506 52.4695 18.2792C51.601 17.6078 50.9785 16.6669 50.6993 15.6035C50.42 14.5401 50.4997 13.4138 50.9259 12.4005C51.352 11.3873 52.1007 10.544 53.055 10.0023ZM49.4254 10.5942C50.302 9.71199 51.4571 9.16275 52.6929 9.04042C51.8886 9.47019 51.1929 10.0786 50.6589 10.8193C50.1249 11.5599 49.7667 12.4131 49.6118 13.3138C49.4569 14.2144 49.5094 15.1387 49.7651 16.0159C50.0208 16.8932 50.4731 17.7002 51.0874 18.3753L51.0665 18.3576L49.8879 18.6225C49.8879 18.6225 49.5291 18.331 49.4254 18.227C48.4169 17.2144 47.8504 15.8417 47.8504 14.4106C47.8504 12.9794 48.4169 11.6068 49.4254 10.5942ZM45.5407 17.5752H47.6693C47.9416 18.0562 48.2745 18.4999 48.66 18.8954L45.5407 19.5998L45.5407 17.5752ZM45.5407 20.6437L51.9971 19.1907C52.3221 19.428 52.6702 19.6315 53.0362 19.7982L53.3957 19.93L45.5407 21.7082V20.6437ZM27.635 9.0141H44.5252V28.7134L36.0802 33.4036L27.6349 28.7134L27.635 9.0141ZM7.7146 17.5475C7.71578 17.8095 7.63869 18.0658 7.49325 18.2835C7.34781 18.5011 7.1407 18.6701 6.89861 18.7686C7.01174 18.5812 7.06536 18.3636 7.05237 18.1449C7.02476 17.9107 6.946 17.6855 6.82169 17.4854C6.69738 17.2852 6.53058 17.115 6.33318 16.9869C6.2022 16.8778 6.09393 16.7437 6.01455 16.5926C5.93517 16.4416 5.88623 16.2763 5.87053 16.1063C5.85483 15.9363 5.87268 15.7649 5.92305 15.6018C5.97343 15.4387 6.05534 15.2871 6.16412 15.1558C6.18941 15.1252 6.21604 15.0959 6.24403 15.0678C6.32066 14.9937 6.4059 14.9291 6.49791 14.8754C6.43333 15.1717 6.45901 15.4806 6.57161 15.762C6.68421 16.0435 6.87853 16.2845 7.12939 16.4538L7.16014 16.4703C7.33169 16.5924 7.47156 16.7538 7.56803 16.9413C7.6645 17.1287 7.71476 17.3366 7.7146 17.5475ZM19.933 24.3864L23.247 27.7128L23.2339 27.7502L22.1633 30.7799L22.8487 33.716H25.4533V34.7661H21.9473L20.5294 33.3428L19.0917 33.3418V28.3007L14.3844 26.2285V24.3867L19.933 24.3864ZM26.6194 21.7082L18.7644 19.93L19.1239 19.7982C19.4899 19.6315 19.8381 19.428 20.163 19.1907L26.6194 20.6437V21.7082ZM26.6194 17.5752V19.5998L23.4999 18.8955C23.8855 18.5 24.2186 18.0562 24.4909 17.5752L26.6194 17.5752ZM22.7347 10.5942C23.7432 11.6068 24.3097 12.9794 24.3097 14.4106C24.3097 15.8417 23.7432 17.2144 22.7347 18.227C22.631 18.331 22.2722 18.6225 22.2722 18.6225L21.0937 18.3576L21.0727 18.3753C21.6873 17.7003 22.1398 16.8933 22.3957 16.016C22.6516 15.1387 22.7041 14.2144 22.5492 13.3136C22.3943 12.4129 22.036 11.5596 21.5019 10.8189C20.9677 10.0783 20.2717 9.46997 19.4672 9.04042C20.703 9.1628 21.8581 9.71203 22.7347 10.5942ZM17.1489 6.30092C17.2469 6.20313 17.3613 6.12344 17.4869 6.06549C17.4869 6.06549 17.4881 7.66709 17.4869 8.22719C17.3621 8.16923 17.2479 8.0907 17.1489 7.99487C16.925 7.77019 16.7992 7.46554 16.7992 7.14789C16.7992 6.83024 16.925 6.52559 17.1489 6.30092ZM13.3841 12.6958L13.382 12.4688L14.1269 12.4706C14.185 12.4712 14.243 12.468 14.3007 12.4611C14.5684 12.4206 14.8168 12.2971 15.0111 12.1079C15.1225 11.993 15.2102 11.8571 15.2693 11.7081C15.3283 11.5591 15.3574 11.4 15.355 11.2397C15.3543 10.9079 15.226 10.5891 14.9969 10.3498C14.7678 10.1104 14.4555 9.9689 14.125 9.9546V9.9496L11.7218 9.94841H11.7211C11.6207 9.94805 11.5244 9.9078 11.4534 9.83647C11.3824 9.76514 11.3425 9.66852 11.3423 9.56775V9.56536L11.3388 9.01387H16.4183C16.9193 9.04574 17.3895 9.26794 17.7329 9.63521C18.0764 10.0025 18.2674 10.4872 18.2669 10.9908C18.2665 11.4943 18.0747 11.9787 17.7307 12.3454C17.3866 12.7121 16.9161 12.9335 16.4149 12.9645C16.3324 12.9643 13.6497 12.9599 13.6482 12.9599H13.6475C13.5777 12.9597 13.5108 12.9319 13.4615 12.8824C13.4121 12.8329 13.3843 12.7658 13.3841 12.6958ZM14.1417 14.7419C14.6105 14.2712 15.2411 13.9983 15.9043 13.9792C16.0297 13.9794 16.4786 13.9801 16.4981 13.9801C16.533 13.98 16.5679 13.9763 16.602 13.9691C17.3363 13.8916 18.0158 13.5441 18.5097 12.9938C19.0036 12.4435 19.2768 11.7293 19.2767 10.989C19.2761 10.6526 19.2181 10.3189 19.1051 10.0023C20.0588 10.5444 20.8068 11.3877 21.2325 12.4008C21.6582 13.4139 21.7377 14.5398 21.4585 15.6029C21.1794 16.666 20.5573 17.6067 19.6892 18.2781C18.8212 18.9496 17.756 19.3141 16.6597 19.3149C16.1531 19.3036 15.6502 19.2242 15.1646 19.079C14.7421 18.9379 14.3626 18.6909 14.0621 18.3615C13.7616 18.032 13.55 17.6309 13.4475 17.1964C13.3451 16.7619 13.355 16.3083 13.4765 15.8787C13.598 15.4491 13.827 15.0578 14.1417 14.7419ZM9.32512 34.7664H5.37059V29.5352H10.3726V25.8734L13.6842 19.3991C14.0354 19.6908 14.4383 19.9132 14.8719 20.0547C14.8719 20.0547 15.3212 20.1695 15.7098 20.2628C16.2728 20.3978 17.0874 20.5866 18.0209 20.8016L13.3374 23.7926V30.8634L9.58687 30.8641L6.76795 32.6655V33.7156H9.3251L9.32512 34.7664Z" fill="#005551"/>
<path d="M51.4633 55.3077H53.1101V60.3619H54.2489V55.3077H55.9126V54.1992H51.4633V55.3077Z" fill="#005551"/>
<path d="M36.3834 55.3077V54.1992H32.324V60.3619H36.3834V59.2519H33.4628V57.8353H35.9671V56.7258H33.4628V55.3077H36.3834Z" fill="#005551"/>
<path d="M21.7811 54.1992H20.6417V58.7023L18.0817 54.1992H16.8009V60.3619H17.9402V55.8751L20.5175 60.3619H21.7811V54.1992Z" fill="#005551"/>
<path d="M48.115 58.5916C48.1402 58.1767 48.0078 57.7676 47.7444 57.4467C47.481 57.1257 47.1062 56.9166 46.6954 56.8616L45.6325 56.599C45.1447 56.4683 44.7262 56.2674 44.7262 55.8305C44.7262 55.2714 45.2142 55.0441 45.7196 55.0441C45.9745 55.0196 46.2312 55.0678 46.46 55.1831C46.6888 55.2985 46.8805 55.4763 47.013 55.6961L47.7734 54.9341C47.549 54.6328 47.2509 54.3947 46.908 54.2426C46.5651 54.0905 46.1888 54.0296 45.8156 54.0658C44.6132 54.0658 43.5942 54.7474 43.5942 55.9179C43.5942 57.0189 44.256 57.3943 45.0836 57.6037L46.1291 57.8571C46.6082 57.9974 46.9826 58.2068 46.9826 58.6703C46.9826 59.2463 46.3905 59.4908 45.7635 59.4908C45.4905 59.5039 45.219 59.4449 44.976 59.3195C44.733 59.1941 44.5272 59.0068 44.3793 58.7764L43.5574 59.6006C43.8291 59.9036 44.1653 60.1413 44.5411 60.2961C44.9169 60.451 45.3227 60.5191 45.7283 60.4952C47.096 60.4952 48.115 59.7355 48.115 58.5916Z" fill="#005551"/>
<path d="M42.3605 56.0641C42.3605 54.8688 41.5665 54.2104 40.1244 54.2104H37.8866V60.3724H39.0227V57.8767H39.4718L39.4887 57.8982L41.2949 60.3724H42.6644L40.7168 57.8292C41.7508 57.6561 42.3605 57.0085 42.3605 56.0641ZM39.0227 56.8986V55.2512H40.1016C40.8229 55.2512 41.1885 55.5247 41.1885 56.0641C41.1885 56.6179 40.8229 56.8986 40.1016 56.8986L39.0227 56.8986Z" fill="#005551"/>
<path d="M15.2562 57.9036C15.2562 59.613 14.1684 60.4831 12.6003 60.4831C11.0325 60.4831 9.94446 59.613 9.94446 57.9036V54.189H11.1777V57.8417C11.1522 58.0367 11.1711 58.2349 11.233 58.4215C11.2949 58.6081 11.3983 58.7782 11.5352 58.9189C11.6722 59.0597 11.8392 59.1674 12.0237 59.2341C12.2082 59.3007 12.4054 59.3245 12.6004 59.3036C12.7954 59.3245 12.9925 59.3007 13.177 59.2341C13.3616 59.1675 13.5286 59.0597 13.6655 58.919C13.8025 58.7782 13.9058 58.6081 13.9677 58.4215C14.0297 58.2349 14.0485 58.0367 14.023 57.8417V54.189H15.2563L15.2562 57.9036Z" fill="#005551"/>
<path d="M24.5549 54.189H23.3259V60.3728H24.5549V54.189Z" fill="#005551"/>
<path d="M29.0693 60.3725H27.5761L25.2594 54.1885H26.5676L28.3341 59.1227L30.1088 54.1885H31.3865L29.0693 60.3725Z" fill="#005551"/>
<path d="M50.4987 54.189H49.2698V60.3728H50.4987V54.189Z" fill="#005551"/>
<path d="M59.8955 57.9066V60.3768H58.678V57.9025L56.3274 54.1973H57.7578L59.2936 56.7956L60.8289 54.1973H62.2157L59.8955 57.9066Z" fill="#005551"/>
<path d="M7.02237 42.5933H5.88538V48.7417H7.02237V42.5933Z" fill="#005551"/>
<path d="M23.6312 43.6992H25.274V48.7418H26.4103V43.6992H28.0704V42.5928H23.6312V43.6992Z" fill="#005551"/>
<path d="M29.2441 48.7418H33.2944V47.6338H30.3804V46.2207H32.8791V45.1143H30.3804V43.6992H33.2944V42.5928H29.2441V48.7418Z" fill="#005551"/>
<path d="M44.2333 45.0372H41.7569V42.5752H40.6201V48.7237H41.7569V46.1442H44.2333V48.7237H45.3696V42.5752H44.2333V45.0372Z" fill="#005551"/>
<path d="M47.9682 44.2476L50.5394 48.7237H51.8004V42.5752H50.6641V47.0681L48.1091 42.5752H46.8319V48.7237H47.9682V44.2476Z" fill="#005551"/>
<path d="M54.3899 42.5752H53.2538V48.7234H54.3899V42.5752Z" fill="#005551"/>
<path d="M63.3888 42.6318L61.3094 48.7592H62.4176L62.7584 47.7545H65.4801L65.814 48.7592H66.9199L64.8853 42.6318H63.3888ZM63.1156 46.7024L64.1348 43.7L65.1311 46.7024L63.1156 46.7024Z" fill="#005551"/>
<path d="M16.9674 42.6143L14.8881 48.7419H15.9956L16.3372 47.7361H19.0594L19.3926 48.7419H20.4978L18.4646 42.6143H16.9674ZM16.6944 46.685L17.7127 43.682L18.7098 46.685H16.6944Z" fill="#005551"/>
<path d="M11.3276 46.252H13.3114C13.1949 46.695 12.9345 47.0864 12.5713 47.3643C12.2081 47.6422 11.763 47.7907 11.3062 47.7865C10.8494 47.7823 10.407 47.6255 10.049 47.3409C9.69099 47.0564 9.43779 46.6603 9.32942 46.2152C9.22104 45.7702 9.26368 45.3016 9.45058 44.8836C9.63749 44.4656 9.958 44.122 10.3614 43.9071C10.7649 43.6922 11.2283 43.6183 11.6783 43.697C12.1283 43.7758 12.5393 44.0027 12.8463 44.342L13.5868 43.5989C13.0923 43.0727 12.4302 42.7358 11.7147 42.6464C10.9992 42.557 10.2749 42.7206 9.66676 43.109C9.05857 43.4975 8.60449 44.0864 8.38273 44.7745C8.16098 45.4626 8.18542 46.2066 8.45186 46.8786C8.7183 47.5505 9.21005 48.1082 9.84242 48.4556C10.4748 48.8031 11.2082 48.9185 11.9163 48.7821C12.6244 48.6456 13.2629 48.2658 13.7218 47.708C14.1807 47.1503 14.4313 46.4495 14.4304 45.7264V45.1999H11.3276V46.252Z" fill="#005551"/>
<path d="M4.5437 44.4433C4.5437 43.251 3.75132 42.5938 2.31271 42.5938H0.0800781V48.7418H1.21342V46.252H1.66165L1.67834 46.2733L3.48056 48.7418H4.84692L2.9036 46.2047C3.93543 46.0318 4.5437 45.3856 4.5437 44.4433ZM1.21344 45.276V43.6324H2.28982C3.00948 43.6324 3.37422 43.9053 3.37422 44.4433C3.37422 44.9959 3.00948 45.276 2.28982 45.276H1.21344Z" fill="#005551"/>
<path d="M68.8411 47.5789V42.5796H67.7048V48.724H72.0801V47.5789H68.8411Z" fill="#005551"/>
<path d="M39.7115 47.5221L38.8571 46.908C38.6125 47.2566 38.2658 47.5204 37.8652 47.663C37.4645 47.8055 37.0296 47.8197 36.6205 47.7036C36.2115 47.5875 35.8485 47.3469 35.5817 47.0149C35.3149 46.683 35.1576 46.2761 35.1314 45.8506C35.1052 45.4251 35.2114 45.0019 35.4354 44.6396C35.6595 44.2772 35.9902 43.9936 36.3819 43.828C36.7736 43.6623 37.207 43.6227 37.6221 43.7147C38.0372 43.8067 38.4135 44.0258 38.6991 44.3416L39.4398 43.5986C39.0017 43.1306 38.43 42.81 37.8031 42.6808C37.1761 42.5516 36.5247 42.6201 35.9381 42.8769C35.3515 43.1337 34.8585 43.5662 34.5267 44.1151C34.1949 44.664 34.0406 45.3024 34.085 45.9427C34.1293 46.583 34.3701 47.1939 34.7744 47.6915C35.1786 48.1891 35.7265 48.5491 36.3428 48.7222C36.9592 48.8952 37.6138 48.8727 38.2169 48.6579C38.8201 48.443 39.3421 48.0463 39.7115 47.5221Z" fill="#005551"/>
<path d="M59.8993 47.1825C59.6122 47.4711 59.2463 47.6678 58.8478 47.7479C58.4493 47.8279 58.0361 47.7876 57.6604 47.6322C57.2847 47.4767 56.9634 47.213 56.7371 46.8744C56.5109 46.5358 56.3898 46.1375 56.3893 45.7299C56.3888 45.3223 56.5088 44.9238 56.7341 44.5846C56.9595 44.2454 57.2801 43.9808 57.6554 43.8244C58.0307 43.6679 58.4438 43.6265 58.8425 43.7055C59.2413 43.7845 59.6077 43.9803 59.8954 44.2681C59.9194 44.2921 59.9428 44.3167 59.9656 44.3418L60.7063 43.5986C60.2682 43.1306 59.6964 42.8101 59.0694 42.6808C58.4425 42.5516 57.791 42.6201 57.2044 42.8769C56.6178 43.1337 56.1248 43.5662 55.793 44.1151C55.4612 44.664 55.3069 45.3025 55.3512 45.9428C55.3955 46.5831 55.6363 47.194 56.0406 47.6917C56.4449 48.1893 56.9927 48.5494 57.6091 48.7224C58.2255 48.8954 58.8802 48.873 59.4833 48.6581C60.0864 48.4433 60.6085 48.0465 60.9779 47.5224L60.1236 46.9082C60.0569 47.006 59.9819 47.0978 59.8993 47.1825Z" fill="#005551"/>
</g>
<defs>
<clipPath id="clip0_182_131">
<rect width="72" height="60" fill="white" transform="translate(0.0800781 0.5)"/>
</clipPath>
</defs>
</svg>
