<svg width="97" height="37" viewBox="0 0 97 37" fill="none" xmlns="http://www.w3.org/2000/svg">
<g clip-path="url(#clip0_182_126)">
<path d="M74.79 33.9795L72.65 29.2995C72.58 29.1595 72.42 29.0995 72.28 29.1595C71.63 29.4695 69.82 30.5995 68.27 30.5995C64.35 30.5995 64.13 26.8795 64.13 23.7495V16.2395C64.13 16.0895 64.26 15.9595 64.41 15.9595H69.9C70.05 15.9595 70.18 15.8295 70.18 15.6795V10.6395C70.18 10.4895 70.05 10.3595 69.9 10.3595H64.41C64.26 10.3595 64.13 10.2295 64.13 10.0795V1.70953C64.13 1.55953 63.98 1.44953 63.84 1.49953L58.01 3.43953C57.85 3.48953 57.74 3.63953 57.74 3.80953V18.5095C50.43 25.1095 44.42 30.7095 38.86 30.7095C33.3 30.7095 29.19 25.8095 29.19 20.1095C29.19 14.4095 33.25 10.0795 38.26 10.0795C43.27 10.0795 44.79 13.4195 44.79 13.4195C44.79 13.4195 39.71 17.6095 35.84 20.0295C35.57 20.1995 35.5 20.5695 35.68 20.8295L38.43 24.6295C38.64 24.9195 38.93 24.9795 39.23 24.7895C41.77 23.2195 47.69 18.9295 52.22 14.8795C52.39 14.7295 52.45 14.4895 52.37 14.2795C50.14 8.20953 44.54 4.34953 38.2 4.34953C29.62 4.34953 22.72 10.9795 22.72 20.1095C22.72 22.4395 23.23 24.8795 24.23 27.1495C22.04 28.7695 19.34 30.5995 16.98 30.5995C12.75 30.5995 11.32 27.4295 11.32 23.1095V16.2395C11.32 16.0895 11.45 15.9595 11.6 15.9595H17.09C17.24 15.9595 17.37 15.8295 17.37 15.6795V10.6395C17.37 10.4895 17.24 10.3595 17.09 10.3595H11.6C11.45 10.3595 11.32 10.2295 11.32 10.0795V1.70953C11.32 1.55953 11.17 1.44953 11.03 1.49953L5.2 3.43953C5.04 3.48953 4.93 3.63953 4.93 3.80953V10.0695C4.93 10.2195 4.8 10.3495 4.65 10.3495H0.28C0.13 10.3495 0 10.4795 0 10.6295V15.6695C0 15.8195 0.13 15.9495 0.28 15.9495H4.66C4.81 15.9495 4.94 16.0795 4.94 16.2295V24.2995C4.94 31.2295 9.29 36.5095 16.6 36.5095C21 36.5095 25.46 33.7395 27.62 32.1795C30.29 34.8995 34.03 36.7395 38.76 36.7395C46.28 36.7395 51.1 32.3895 57.9 26.6995C58.26 32.4595 61.72 36.5195 67.69 36.5195C71.1 36.5195 73.78 34.9795 74.64 34.4795C74.81 34.3795 74.88 34.1695 74.8 33.9895" fill="black"/>
<path d="M96 8.64993C89.19 13.4799 82.38 3.93993 75.58 8.76993C75.55 6.41993 75.52 4.06993 75.5 1.72993C82.31 -3.22007 89.12 6.31993 95.92 1.60993C95.95 3.95993 95.98 6.30993 96 8.64993Z" fill="#0057B7"/>
<path d="M96.08 15.6901C89.27 20.6401 82.46 11.1001 75.66 15.8101C75.63 13.4601 75.6 11.1101 75.58 8.77007C82.39 3.94007 89.2 13.4801 96 8.65007C96.03 11.0001 96.06 13.3501 96.08 15.6901Z" fill="#FFD700"/>
</g>
<defs>
<clipPath id="clip0_182_126">
<rect width="96.08" height="36.48" fill="white" transform="translate(0 0.259766)"/>
</clipPath>
</defs>
</svg>
