<svg width="80" height="80" viewBox="0 0 80 80" fill="none" xmlns="http://www.w3.org/2000/svg">
<path d="M41.6151 29.7321C40.4422 30.4076 40.6264 32.1517 41.913 32.5724L52.5063 36.0298C53.3907 36.3184 54.3302 35.7749 54.5237 34.866L56.8297 23.9625C57.1091 22.6391 55.6905 21.6074 54.5145 22.286L52.2945 23.5634L48.7603 17.4438C46.7982 14.0447 43.1657 11.9536 39.2416 11.9567L35.3481 11.9628C34.8875 11.9628 34.602 12.4633 34.8323 12.8594L43.832 28.4486L41.6151 29.7321Z" fill="white"/>
<path d="M29.7659 44.1575C30.9388 44.833 32.3605 43.8044 32.0811 42.4779L29.7751 31.5775C29.5816 30.6686 28.6421 30.1251 27.7577 30.4138L17.1644 33.865C15.8778 34.2857 15.6936 36.0329 16.8665 36.7114L19.0865 37.9949L15.5523 44.1145C13.5902 47.5136 13.5933 51.7049 15.5615 55.1009L17.5144 58.4663C17.7447 58.8654 18.3189 58.8654 18.5492 58.4663L27.5489 42.8802L29.7659 44.1575Z" fill="white"/>
<path d="M66.1825 49.7674H48.183V47.2066C48.183 45.8525 46.5802 45.1401 45.573 46.0428L37.2826 53.4889C36.5917 54.1122 36.5917 55.1961 37.2826 55.8194L45.573 63.2655C46.5802 64.1713 48.183 63.4559 48.183 62.1018V59.541H55.2514C59.1786 59.541 62.8049 57.4438 64.7609 54.0385L66.7015 50.6609C66.9287 50.2618 66.6431 49.7643 66.1825 49.7643V49.7674Z" fill="white"/>
<path d="M28.9153 27.248C30.9112 27.5213 32.468 29.1333 32.8794 31.1016L33.2724 32.9869L37.8875 25.0035C37.9949 24.8223 37.9949 24.5951 37.8875 24.4078L32.9408 15.8348C32.7105 15.4356 32.1363 15.4356 31.906 15.8348L24.8223 28.0709L26.7905 27.4323C27.4691 27.205 28.1784 27.1436 28.9123 27.245L28.9153 27.248Z" fill="white"/>
<path d="M33.6378 54.6496C33.6378 53.317 34.1997 52.055 35.1915 51.1676L36.7698 49.7613L27.5428 49.749C27.3279 49.749 27.1313 49.8626 27.0239 50.0438L22.068 58.6167C21.8377 59.0159 22.1264 59.5133 22.5839 59.5133L36.7299 59.5287L35.1915 58.1439C34.1997 57.2595 33.6378 55.9822 33.6378 54.6496Z" fill="white"/>
<path d="M53.6578 39.1894C52.927 39.2876 52.2208 39.2262 51.5422 38.999L49.5463 38.348L54.1491 46.3468C54.2535 46.528 54.4531 46.6416 54.6649 46.6416H64.5674C65.028 46.6416 65.3136 46.1442 65.0833 45.745L58.0118 33.4843L57.6157 35.3543C57.2012 37.3163 55.6475 38.9161 53.6578 39.1894Z" fill="white"/>
<path d="M40 79.9969C17.9443 79.9969 0 62.0557 0 40C0 17.9443 17.9443 0 40 0C62.0557 0 80 17.9412 80 40C80 62.0588 62.0557 80 40 80V79.9969ZM40 4.47993C20.4161 4.47993 4.47993 20.413 4.47993 40C4.47993 59.587 20.413 75.5201 40 75.5201C59.587 75.5201 75.5201 59.587 75.5201 40C75.5201 20.413 59.5839 4.47993 40 4.47993Z" fill="white"/>
</svg>
