<svg width="80" height="74" viewBox="0 0 80 74" fill="none" xmlns="http://www.w3.org/2000/svg">
<path d="M73.3624 52.765C73.3624 53.7733 72.5291 54.5741 71.5257 54.5741H16.0865C15.0831 54.5741 14.2498 53.7704 14.2498 52.765V48.5277H11.2193C11.029 48.5277 10.8416 48.5277 10.6686 48.5078V58.8654C10.6686 61.8134 13.0935 64.2217 16.0865 64.2217H38.2916L37.268 70.4556H33.5743C32.5709 70.4556 31.7751 71.2594 31.7751 72.2278C31.7751 73.1963 32.5709 74 33.5743 74H54.0551C55.0413 74 55.8544 73.1963 55.8544 72.2278C55.8544 71.2594 55.0384 70.4556 54.0551 70.4556H50.3413L49.3379 64.2217H71.5228C74.5158 64.2217 76.9407 61.8134 76.9407 58.8654V48.5277H73.3595V52.765H73.3624Z" fill="white"/>
<path d="M39.1999 17.364L38.9173 20.63H54.7933V17.0857H39.22L39.1999 17.364Z" fill="white"/>
<path d="M39.7391 12.5018V11.9651C39.7391 9.83221 37.9831 8.10262 35.8176 8.10262H29.2608V6.5548C29.2608 2.94228 26.2764 0 22.6059 0H17.1332C13.4655 0 10.4783 2.93944 10.4783 6.5548V8.10262H3.92143C1.75599 8.10262 0 9.83221 0 11.9651V12.5018C0 13.209 0.582447 13.7855 1.30041 13.7855H38.4386C39.1566 13.7855 39.7391 13.2118 39.7391 12.5018ZM25.0568 8.10262H14.6852V6.5548C14.6852 5.22567 15.7837 4.14361 17.1332 4.14361H22.6059C23.9553 4.14361 25.0539 5.22567 25.0539 6.5548V8.10262H25.0568Z" fill="white"/>
<path d="M28.5313 45.256C31.3426 45.256 33.6839 43.1345 33.9175 40.3768L35.8926 17.0942H3.84646L5.82447 40.3768C6.05803 43.1345 8.39935 45.256 11.2107 45.256H28.5341H28.5313ZM26.2476 23.8194C26.3082 22.7799 27.2164 21.9876 28.2631 22.0472C29.3155 22.1068 30.1229 22.9958 30.0624 24.0324L29.229 38.5166C29.1714 39.5191 28.3294 40.2944 27.3231 40.2944C27.2856 40.2944 27.2481 40.2944 27.2135 40.2916C26.1611 40.232 25.3538 39.343 25.4143 38.3064L26.2476 23.8222V23.8194ZM17.9578 23.9273C17.9578 22.8879 18.8142 22.0444 19.8695 22.0444C20.9249 22.0444 21.7812 22.8879 21.7812 23.9273V38.4115C21.7812 39.4509 20.9249 40.2944 19.8695 40.2944C18.8142 40.2944 17.9578 39.4509 17.9578 38.4115V23.9273ZM10.5042 38.5194L9.67093 24.0352C9.61038 22.9958 10.4177 22.1068 11.4702 22.05C12.5284 21.9904 13.428 22.7856 13.4857 23.8222L14.319 38.3064C14.3795 39.3459 13.5722 40.2348 12.5197 40.2916C12.4822 40.2916 12.4448 40.2944 12.4102 40.2944C11.4039 40.2944 10.5619 39.5191 10.5042 38.5166V38.5194Z" fill="white"/>
<path d="M77.5001 6.84449H60.6062C59.228 6.84449 58.1063 7.94642 58.1063 9.3068V42.7908C58.1063 44.1512 59.2309 45.2531 60.6062 45.2531H77.5001C78.8812 45.2531 80 44.1512 80 42.7908V9.3068C80 7.94642 78.8784 6.84449 77.5001 6.84449ZM72.0014 41.5157C72.0014 42.0041 71.5978 42.4017 71.1018 42.4017H67.0016C66.5057 42.4017 66.102 42.0041 66.102 41.5157V40.6324C66.102 40.1439 66.5057 39.7463 67.0016 39.7463H71.1018C71.5978 39.7463 72.0014 40.1439 72.0014 40.6324V41.5157ZM61.1051 36.8949V12.428H68.1262L64.7987 18.1819L68.971 19.6247L66.1251 28.6929L73.3884 17.6167L69.9629 16.8954L72.9587 12.428H77.0013V36.8949H61.1051Z" fill="white"/>
</svg>
