<svg width="41" height="40" viewBox="0 0 41 40" fill="none" xmlns="http://www.w3.org/2000/svg">
<path d="M20.892 14.866C20.3056 15.2038 20.3977 16.0758 21.0409 16.2862L26.3376 18.0149C26.7798 18.1592 27.2496 17.8875 27.3463 17.433L28.4993 11.9813C28.639 11.3196 27.9297 10.8037 27.3417 11.143L26.2317 11.7817L24.4646 8.72189C23.4836 7.02234 21.6673 5.97682 19.7053 5.97835L17.7585 5.98142C17.5282 5.98142 17.3855 6.23167 17.5006 6.42972L22.0005 14.2243L20.892 14.866Z" fill="#6C869F"/>
<path d="M14.9674 22.0788C15.5539 22.4165 16.2647 21.9022 16.125 21.239L14.972 15.7887C14.8753 15.3343 14.4055 15.0626 13.9633 15.2069L8.66665 16.9325C8.02337 17.1429 7.93125 18.0164 8.51773 18.3557L9.62773 18.9975L7.86063 22.0573C6.87959 23.7568 6.88113 25.8525 7.86524 27.5505L8.84167 29.2331C8.95681 29.4327 9.24391 29.4327 9.35906 29.2331L13.8589 21.4401L14.9674 22.0788Z" fill="#6C869F"/>
<path d="M33.1757 24.8837H24.176V23.6033C24.176 22.9262 23.3746 22.57 22.871 23.0214L18.7258 26.7445C18.3803 27.0561 18.3803 27.5981 18.7258 27.9097L22.871 31.6328C23.3746 32.0857 24.176 31.7279 24.176 31.0509V29.7705H27.7102C29.6738 29.7705 31.4869 28.7219 32.4649 27.0193L33.4352 25.3305C33.5488 25.1309 33.406 24.8822 33.1757 24.8822V24.8837Z" fill="#6C869F"/>
<path d="M14.5421 13.624C15.5401 13.7607 16.3184 14.5667 16.5242 15.5508L16.7207 16.4934L19.0282 12.5017C19.0819 12.4111 19.0819 12.2975 19.0282 12.2039L16.5549 7.9174C16.4397 7.71782 16.1526 7.71782 16.0375 7.9174L12.4956 14.0355L13.4797 13.7161C13.819 13.6025 14.1737 13.5718 14.5406 13.6225L14.5421 13.624Z" fill="#6C869F"/>
<path d="M16.9034 27.3248C16.9034 26.6585 17.1843 26.0275 17.6802 25.5838L18.4694 24.8806L13.8559 24.8745C13.7484 24.8745 13.6501 24.9313 13.5964 25.0219L11.1185 29.3084C11.0033 29.5079 11.1476 29.7567 11.3764 29.7567L18.4494 29.7643L17.6802 29.0719C17.1843 28.6298 16.9034 27.9911 16.9034 27.3248Z" fill="#6C869F"/>
<path d="M26.9134 19.5947C26.548 19.6438 26.1949 19.6131 25.8556 19.4995L24.8576 19.174L27.159 23.1734C27.2112 23.264 27.311 23.3208 27.4169 23.3208H32.3682C32.5985 23.3208 32.7413 23.0721 32.6261 22.8725L29.0904 16.7422L28.8923 17.6771C28.6851 18.6582 27.9082 19.458 26.9134 19.5947Z" fill="#6C869F"/>
<path d="M20.0845 39.9985C9.05661 39.9985 0.0844727 31.0279 0.0844727 20C0.0844727 8.97213 9.05661 0 20.0845 0C31.1123 0 40.0845 8.9706 40.0845 20C40.0845 31.0294 31.1123 40 20.0845 40V39.9985ZM20.0845 2.23996C10.2925 2.23996 2.32444 10.2065 2.32444 20C2.32444 29.7935 10.291 37.76 20.0845 37.76C29.878 37.76 37.8445 29.7935 37.8445 20C37.8445 10.2065 29.8764 2.23996 20.0845 2.23996Z" fill="#6C869F"/>
</svg>
