<svg width="80" height="56" viewBox="0 0 80 56" fill="none" xmlns="http://www.w3.org/2000/svg">
<path fill-rule="evenodd" clip-rule="evenodd" d="M6.84349 20.8965L0 23.5594L1.42397 31.4716L6.84115 36.0677V20.8965H6.84349ZM49.3097 12.4532L39.815 0H33.7584L26.8564 6.6154C26.6432 6.84747 26.3411 6.99342 26.0039 6.99342H18.8676L15.7831 12.4532H49.3097ZM30.613 37.1802C31.2548 37.1802 31.777 37.7137 31.777 38.3693C31.777 39.0249 31.2571 39.5584 30.613 39.5584H24.9054C24.4136 39.5584 23.9522 39.4388 23.5377 39.2258C23.0224 38.9627 22.6032 38.5607 22.3104 38.0774C22.0153 37.5893 21.8491 37.0247 21.8491 36.4433H21.8537C21.8537 35.9815 21.9568 35.503 22.1793 35.0485L23.978 31.3759L23.8937 31.4022C23.2847 31.6032 22.6313 31.2587 22.4346 30.6366C22.2378 30.0121 22.5751 29.347 23.184 29.146L25.8938 28.2488C26.5027 28.0479 27.1562 28.3924 27.3529 29.0144L28.2312 31.7826C28.4279 32.4047 28.0906 33.0722 27.4817 33.2708C26.8728 33.4718 26.2193 33.1272 26.0226 32.5052L26.0179 32.4908L24.252 36.1012C24.1958 36.2136 24.17 36.3285 24.17 36.4385H24.1747C24.1747 36.5821 24.2122 36.7161 24.2801 36.8309C24.3504 36.9481 24.4511 37.0438 24.5705 37.106C24.6595 37.1515 24.7719 37.1778 24.9031 37.1778H30.6107L30.613 37.1802ZM24.9242 42.9869C26.8868 42.9869 28.6832 43.7071 30.0767 44.9034H55.5185V14.8314H9.16916V44.9081H11.3379C11.3613 44.9057 11.3824 44.9034 11.4058 44.9034L19.7763 44.8986C21.1675 43.7071 22.9639 42.9869 24.9218 42.9869H24.9242ZM35.2667 35.4695C35.7211 35.0054 36.4565 35.0054 36.9108 35.4695C37.3652 35.9337 37.3652 36.685 36.9108 37.1491L36.8827 37.1778H39.7822C39.9133 37.1778 40.0234 37.1515 40.1148 37.106C40.2342 37.0438 40.3349 36.9481 40.4052 36.8309C40.4731 36.7184 40.5106 36.5845 40.5106 36.4409C40.5106 36.3261 40.4871 36.2112 40.4333 36.1036L37.4003 29.9045C37.1146 29.3207 37.3464 28.6101 37.9179 28.3158C38.4894 28.0239 39.185 28.2608 39.473 28.8446L42.5083 35.0437C42.7355 35.5054 42.8386 35.9815 42.8386 36.4385C42.8386 37.0223 42.6723 37.5869 42.3772 38.0726C42.0844 38.5535 41.6652 38.9579 41.15 39.2211C40.7377 39.4316 40.274 39.5536 39.7822 39.5536H36.8827L36.9108 39.5847C37.3652 40.0489 37.3652 40.8001 36.9108 41.2643C36.4565 41.7284 35.7211 41.7284 35.2667 41.2643L33.2596 39.2139C33.2221 39.1756 33.187 39.1349 33.1542 39.0919L33.1378 39.0703L33.1331 39.0631L33.1237 39.0464L33.1167 39.0368L33.098 39.0129L33.0909 39.0009L33.0839 38.9914L33.0722 38.9722V38.9674L33.0581 38.9459V38.9411L33.0441 38.922V38.9148L33.03 38.8933C32.9527 38.733 32.9106 38.5559 32.9106 38.3669C32.9106 38.1779 32.9527 37.9985 33.03 37.8406L33.0417 37.819V37.8118L33.0558 37.7927V37.7879L33.0699 37.7664V37.7616L33.0909 37.7329L33.098 37.7209L33.1167 37.697L33.1237 37.6874L33.1331 37.6707L33.1378 37.6635L33.1542 37.642C33.187 37.5989 33.2221 37.5582 33.2596 37.52L35.2667 35.4695ZM33.6366 26.0405C33.03 25.8323 32.7021 25.1624 32.9059 24.5404C33.1097 23.9183 33.7654 23.5857 34.3744 23.7939L34.4189 23.8083L32.9972 20.9061C32.92 20.7482 32.8052 20.6357 32.6764 20.5711C32.5804 20.5209 32.4656 20.497 32.3438 20.497C32.222 20.497 32.1073 20.5209 32.0112 20.5711C31.8824 20.6357 31.7677 20.7482 31.6904 20.9061L29.0158 26.3683C28.73 26.9545 28.0344 27.1889 27.4606 26.897C26.8892 26.6051 26.6573 25.8922 26.943 25.3084L29.6177 19.8438C29.9338 19.2002 30.4163 18.7361 30.9737 18.4489C31.4093 18.2264 31.8801 18.1164 32.3438 18.1164C32.8075 18.1164 33.2783 18.2264 33.7139 18.4489C34.2713 18.7337 34.7538 19.2002 35.07 19.8438L36.4939 22.7555L36.5127 22.7005C36.7164 22.0808 37.3722 21.7459 37.9811 21.954C38.5877 22.1622 38.9156 22.8321 38.7119 23.4542L37.8078 26.2152C37.6041 26.8348 36.9483 27.1698 36.3394 26.9616L33.6366 26.0381V26.0405Z" fill="white"/>
<path fill-rule="evenodd" clip-rule="evenodd" d="M66.7955 42.6209C68.9104 42.6209 70.8262 43.4965 72.2127 44.9129C73.3509 46.0757 74.1331 47.6045 74.3767 49.3104H78.3723V49.3152H78.3863C78.8337 49.3128 79.2388 49.1262 79.5292 48.8271C79.8173 48.5329 79.9953 48.1165 79.9953 47.6548H80C79.9977 47.0255 79.9953 46.3963 79.993 45.7671H76.3956C75.782 45.7671 75.2831 45.2575 75.2831 44.6306V38.1013C75.2831 37.4745 75.782 36.9649 76.3956 36.9649H79.9344C79.9274 36.1251 79.9227 35.2853 79.918 34.4455C79.918 34.1823 79.8595 33.9359 79.7541 33.7158C79.6487 33.5005 79.4894 33.3067 79.281 33.144L77.7235 31.9238H61.9662C61.3525 31.9238 60.8537 31.4166 60.8537 30.7897V23.9662C60.8537 23.3393 61.3525 22.8297 61.9662 22.8297H71.3836L70.072 20.4802C69.9221 20.2123 69.7207 20.0041 69.4842 19.8629C69.25 19.7242 68.9713 19.65 68.6621 19.65H56.3359V49.3128H59.2213C59.4648 47.6069 60.2471 46.0781 61.383 44.9153C62.7695 43.4989 64.6853 42.6233 66.8002 42.6233L66.7955 42.6209ZM70.6388 46.5207C69.6551 45.5159 68.2967 44.8938 66.7955 44.8938C65.2942 44.8938 63.9358 45.5159 62.9522 46.5207C61.9685 47.5256 61.3596 48.9133 61.3596 50.4469C61.3596 51.9805 61.9685 53.3682 62.9522 54.3731C63.9358 55.3779 65.2942 56 66.7955 56C68.2967 56 69.6551 55.3779 70.6388 54.3731C71.6225 53.3682 72.2314 51.9805 72.2314 50.4469C72.2314 48.9133 71.6225 47.5256 70.6388 46.5207ZM31.5967 46.7265C32.0159 47.5184 32.304 48.3869 32.4352 49.3128H54.1062V46.7265H31.5967ZM17.2774 49.3104C17.4085 48.3845 17.6989 47.516 18.1158 46.7241H13.0429V49.3104H17.2774ZM28.6996 46.5207C28.6644 46.4848 28.6293 46.4489 28.5918 46.4131C27.6175 45.4728 26.3036 44.8938 24.8563 44.8938C23.4089 44.8938 21.9966 45.5159 21.0129 46.5207C20.0293 47.5256 19.4203 48.9133 19.4203 50.4469C19.4203 51.9805 20.0293 53.3682 21.0129 54.3731C21.9966 55.3779 23.355 56 24.8563 56C26.3575 56 27.7159 55.3779 28.6996 54.3731C29.6832 53.3682 30.2922 51.9805 30.2922 50.4469C30.2922 48.9133 29.6832 47.5256 28.6996 46.5207ZM77.5057 39.2378V43.4941H79.9789C79.9696 42.0754 79.9602 40.6566 79.9508 39.2378H77.5057ZM72.6506 25.1002H63.074V29.6533H75.2011C75.1683 29.5982 75.1356 29.5432 75.1028 29.4858L72.6506 25.1002ZM66.7955 47.8605C68.1937 47.8605 69.3272 49.0185 69.3272 50.4469C69.3272 51.8752 68.1937 53.0332 66.7955 53.0332C65.3973 53.0332 64.2637 51.8752 64.2637 50.4469C64.2637 49.0185 65.3973 47.8605 66.7955 47.8605ZM24.8563 47.8605C26.2545 47.8605 27.388 49.0185 27.388 50.4469C27.388 51.8752 26.2545 53.0332 24.8563 53.0332C23.458 53.0332 22.3245 51.8752 22.3245 50.4469C22.3245 49.0185 23.458 47.8605 24.8563 47.8605Z" fill="white"/>
</svg>
