<svg width="40" height="41" viewBox="0 0 40 41" fill="none" xmlns="http://www.w3.org/2000/svg">
<path d="M20.6057 16.6495C20.1658 16.9029 20.2349 17.5569 20.7174 17.7146L24.6899 19.0112C25.0215 19.1194 25.3738 18.9156 25.4464 18.5748L26.3111 14.486C26.4159 13.9897 25.8839 13.6028 25.4429 13.8573L24.6104 14.3363L23.2851 12.0414C22.5493 10.7668 21.1872 9.98261 19.7156 9.98376L18.2555 9.98607C18.0828 9.98607 17.9757 10.1738 18.0621 10.3223L21.437 16.1682L20.6057 16.6495Z" fill="#009900"/>
<path d="M16.1622 22.0591C16.6021 22.3124 17.1352 21.9267 17.0304 21.4292L16.1657 17.3416C16.0931 17.0007 15.7408 16.7969 15.4092 16.9052L11.4366 18.1994C10.9542 18.3571 10.8851 19.0123 11.3249 19.2668L12.1574 19.7481L10.8321 22.0429C10.0963 23.3176 10.0975 24.8893 10.8356 26.1629L11.5679 27.4248C11.6543 27.5745 11.8696 27.5745 11.9559 27.4248L15.3309 21.5801L16.1622 22.0591Z" fill="#009900"/>
<path d="M29.8185 24.1628H23.0686V23.2025C23.0686 22.6947 22.4676 22.4275 22.0899 22.7661L18.981 25.5583C18.7219 25.7921 18.7219 26.1985 18.981 26.4323L22.0899 29.2246C22.4676 29.5642 23.0686 29.296 23.0686 28.7882V27.8279H25.7193C27.192 27.8279 28.5519 27.0414 29.2853 25.7645L30.013 24.4979C30.0983 24.3482 29.9912 24.1616 29.8185 24.1616V24.1628Z" fill="#009900"/>
<path d="M15.8432 15.718C16.5917 15.8205 17.1755 16.425 17.3298 17.1631L17.4772 17.8701L19.2078 14.8763C19.2481 14.8084 19.2481 14.7232 19.2078 14.6529L17.3528 11.4381C17.2664 11.2884 17.0511 11.2884 16.9648 11.4381L14.3084 16.0266L15.0464 15.7871C15.3009 15.7019 15.5669 15.6789 15.8421 15.7169L15.8432 15.718Z" fill="#009900"/>
<path d="M17.6142 25.9936C17.6142 25.4939 17.8249 25.0206 18.1968 24.6878L18.7887 24.1605L15.3285 24.1559C15.2479 24.1559 15.1743 24.1985 15.134 24.2664L13.2755 27.4813C13.1891 27.631 13.2974 27.8175 13.469 27.8175L18.7737 27.8233L18.1968 27.3039C17.8249 26.9723 17.6142 26.4933 17.6142 25.9936Z" fill="#009900"/>
<path d="M25.1217 20.196C24.8476 20.2329 24.5828 20.2098 24.3283 20.1246L23.5799 19.8805L25.3059 22.8801C25.3451 22.948 25.4199 22.9906 25.4993 22.9906H29.2128C29.3855 22.9906 29.4926 22.8041 29.4062 22.6544L26.7544 18.0566L26.6059 18.7578C26.4504 19.4936 25.8678 20.0935 25.1217 20.196Z" fill="#009900"/>
<path d="M20 35.4988C11.7291 35.4988 5 28.7709 5 20.5C5 12.2291 11.7291 5.5 20 5.5C28.2709 5.5 35 12.228 35 20.5C35 28.772 28.2709 35.5 20 35.5V35.4988ZM20 7.17997C12.656 7.17997 6.67997 13.1549 6.67997 20.5C6.67997 27.8451 12.6549 33.82 20 33.82C27.3451 33.82 33.32 27.8451 33.32 20.5C33.32 13.1549 27.344 7.17997 20 7.17997Z" fill="#009900"/>
</svg>
