<svg width="30" height="31" viewBox="0 0 30 31" fill="none" xmlns="http://www.w3.org/2000/svg">
<path d="M15.6057 11.6495C15.1658 11.9029 15.2349 12.5569 15.7174 12.7146L19.6899 14.0112C20.0215 14.1194 20.3738 13.9156 20.4464 13.5748L21.3111 9.48595C21.4159 8.98968 20.8839 8.60279 20.4429 8.85726L19.6104 9.33626L18.2851 7.04141C17.5493 5.76675 16.1872 4.98261 14.7156 4.98376L13.2555 4.98607C13.0828 4.98607 12.9757 5.17375 13.0621 5.32229L16.437 11.1682L15.6057 11.6495Z" fill="#009900"/>
<path d="M11.1622 17.0591C11.6021 17.3124 12.1352 16.9267 12.0304 16.4292L11.1657 12.3416C11.0931 12.0007 10.7408 11.7969 10.4092 11.9052L6.43663 13.1994C5.95417 13.3571 5.88509 14.0123 6.32494 14.2668L7.15744 14.7481L5.83212 17.0429C5.09634 18.3176 5.09749 19.8893 5.83557 21.1629L6.5679 22.4248C6.65426 22.5745 6.86958 22.5745 6.95594 22.4248L10.3309 16.5801L11.1622 17.0591Z" fill="#009900"/>
<path d="M24.8185 19.1628H18.0686V18.2025C18.0686 17.6947 17.4676 17.4275 17.0899 17.7661L13.981 20.5583C13.7219 20.7921 13.7219 21.1985 13.981 21.4323L17.0899 24.2246C17.4676 24.5643 18.0686 24.296 18.0686 23.7882V22.8279H20.7193C22.192 22.8279 23.5519 22.0414 24.2853 20.7645L25.013 19.4979C25.0983 19.3482 24.9912 19.1616 24.8185 19.1616V19.1628Z" fill="#009900"/>
<path d="M10.8432 10.718C11.5917 10.8205 12.1755 11.425 12.3298 12.1631L12.4772 12.8701L14.2078 9.8763C14.2481 9.80836 14.2481 9.72315 14.2078 9.65291L12.3528 6.43805C12.2664 6.28836 12.0511 6.28836 11.9648 6.43805L9.30836 11.0266L10.0464 10.7871C10.3009 10.7019 10.5669 10.6789 10.8421 10.7169L10.8432 10.718Z" fill="#009900"/>
<path d="M12.6142 20.9936C12.6142 20.4939 12.8249 20.0206 13.1968 19.6878L13.7887 19.1605L10.3285 19.1559C10.2479 19.1559 10.1743 19.1985 10.134 19.2664L8.27551 22.4813C8.18915 22.631 8.29738 22.8175 8.46895 22.8175L13.7737 22.8233L13.1968 22.3039C12.8249 21.9723 12.6142 21.4933 12.6142 20.9936Z" fill="#009900"/>
<path d="M20.1217 15.196C19.8476 15.2329 19.5828 15.2098 19.3283 15.1246L18.5799 14.8805L20.3059 17.8801C20.3451 17.948 20.4199 17.9906 20.4993 17.9906H24.2128C24.3855 17.9906 24.4926 17.8041 24.4062 17.6544L21.7544 13.0566L21.6059 13.7578C21.4504 14.4936 20.8678 15.0935 20.1217 15.196Z" fill="#009900"/>
<path d="M15 30.4988C6.7291 30.4988 0 23.7709 0 15.5C0 7.2291 6.7291 0.5 15 0.5C23.2709 0.5 30 7.22795 30 15.5C30 23.772 23.2709 30.5 15 30.5V30.4988ZM15 2.17997C7.65602 2.17997 1.67997 8.15487 1.67997 15.5C1.67997 22.8451 7.65487 28.82 15 28.82C22.3451 28.82 28.32 22.8451 28.32 15.5C28.32 8.15487 22.344 2.17997 15 2.17997Z" fill="#009900"/>
</svg>
