<svg xmlns="http://www.w3.org/2000/svg" enable-background="new 0 0 60 60" viewBox="0 0 60 60" id="gmail">
  <g>
    <path fill="#FFF" d="M50,60H10C4.477,60,0,55.523,0,50V10C0,4.477,4.477,0,10,0h40c5.523,0,10,4.477,10,10v40
		C60,55.523,55.523,60,50,60z"></path>
  </g>
  <g>
    <path fill="#0082F7" d="M16.283,49H9.425C6.709,49,4.5,46.791,4.5,44.075v-24c0-0.829,0.671-1.5,1.5-1.5s1.5,0.671,1.5,1.5v24
		C7.5,45.137,8.363,46,9.425,46h6.217V28.697c0-0.829,0.671-1.5,1.5-1.5s1.5,0.671,1.5,1.5v17.945
		C18.642,47.942,17.583,49,16.283,49z"></path>
    <path fill="#EB2060" d="M30,39.572c-0.806,0-1.602-0.272-2.24-0.766L5.082,21.258C4.715,20.974,4.5,20.536,4.5,20.072v-3.429
		c0.001-1.485,0.48-2.89,1.386-4.062C7.154,10.941,9.071,10,11.146,10c1.481,0,2.885,0.479,4.059,1.387L30,22.82l11.94-9.227
		c0.453-0.35,1.064-0.411,1.578-0.16c0.514,0.252,0.839,0.774,0.839,1.347v13.914c0,0.464-0.215,0.902-0.582,1.187l-11.534,8.925
		C31.602,39.3,30.806,39.572,30,39.572z M7.5,19.336l22.095,17.097c0.23,0.179,0.579,0.179,0.81,0l10.952-8.475V17.835l-9.633,7.444
		c-0.142,0.109-0.297,0.189-0.458,0.242c-0.024,0.038-0.051,0.075-0.079,0.111c-0.506,0.656-1.448,0.777-2.104,0.27L13.371,13.761
		C12.727,13.263,11.958,13,11.146,13c-1.139,0-2.191,0.516-2.886,1.416c-0.497,0.643-0.759,1.413-0.759,2.228L7.5,19.336z"></path>
    <path fill="#B3FFCE" d="M46,30.622v17.945c0,0.471,0.378,0.858,0.858,0.858h6.858c1.892,0,3.425-1.532,3.425-3.425V22L46,30.622z"></path>
    <path fill="#0C3" d="M50.575,49h-6.858c-1.3,0-2.358-1.058-2.358-2.358V28.697c0-0.829,0.671-1.5,1.5-1.5s1.5,0.671,1.5,1.5V46
		h6.217c1.062,0,1.925-0.863,1.925-1.925v-24c0-0.829,0.671-1.5,1.5-1.5s1.5,0.671,1.5,1.5v24C55.5,46.791,53.291,49,50.575,49z"></path>
    <path fill="#F4C603" d="M42.857,30.194c-0.225,0-0.451-0.05-0.661-0.153c-0.514-0.252-0.839-0.774-0.839-1.347V14.78
		c0-0.464,0.215-0.903,0.583-1.187l2.855-2.207C45.969,10.479,47.373,10,48.854,10c2.076,0,3.993,0.941,5.26,2.582c0,0,0,0,0,0
		c0.906,1.173,1.385,2.578,1.385,4.062l0.001,3.427c0,0.464-0.215,0.903-0.582,1.187l-11.143,8.623
		C43.507,30.088,43.183,30.194,42.857,30.194z M44.357,15.517v10.121l8.143-6.301v-2.693c0-0.813-0.264-1.584-0.761-2.228
		C51.044,13.516,49.993,13,48.854,13c-0.811,0-1.58,0.263-2.224,0.761L44.357,15.517z"></path>
    <path fill="#0082F7" d="M12,42.75c-0.414,0-0.75-0.336-0.75-0.75V30c0-0.414,0.336-0.75,0.75-0.75s0.75,0.336,0.75,0.75v12
		C12.75,42.414,12.414,42.75,12,42.75z"></path>
  </g>
</svg>
