<svg xmlns="http://www.w3.org/2000/svg" width="47.271" height="47.271" id="microsoft-outlook">
  <path fill="#0364b8" d="M42.242 2.954h-25.4a2.074 2.074 0 0 0-2.07 2.074v2.358l14.314 4.432 15.23-4.432V5.028a2.074 2.074 0 0 0-2.074-2.074Z"></path>
  <path fill="#0a2767" d="M46.754 25.711a16.754 16.754 0 0 0 .517-2.075.984.984 0 0 0-.492-.851l-.019-.012h-.006l-16.01-9.12a2.22 2.22 0 0 0-2.4 0l-16.009 9.118h-.006l-.018.01a.984.984 0 0 0-.493.854 16.758 16.758 0 0 0 .517 2.075l16.976 12.417Z"></path>
  <path fill="#28a8ea" d="M35.448 7.386H25.112l-2.985 4.432 2.985 4.432 10.336 8.862h8.863v-8.863Z"></path>
  <path fill="#0078d4" d="M14.772 7.386h10.34v8.863h-10.34Z"></path>
  <path fill="#50d9ff" d="M35.453 7.386h8.863v8.863h-8.863Z"></path>
  <path fill="#0364b8" d="m35.453 25.112-10.341-8.863h-10.34v8.863l10.34 8.863 16 2.612Z"></path>
  <path fill="none" d="M14.818 7.386h29.5"></path>
  <path fill="#0078d4" d="M25.112 16.249h10.34v8.863h-10.34Z"></path>
  <path fill="#064a8c" d="M14.772 25.112h10.34v8.863h-10.34Z"></path>
  <path fill="#0078d4" d="M35.453 25.112h8.863v8.863h-8.863Z"></path>
  <path fill="#0a2767" d="M29.825 37.252 12.407 24.548l.731-1.285L29.25 32.44a.78.78 0 0 0 .62-.018l16.15-9.2.733 1.279Z" opacity=".5"></path>
  <path fill="#1490df" d="m46.779 24.487-.021.012-16.01 9.12a2.211 2.211 0 0 1-2.157.134l5.571 7.482 12.193 2.652v.006a2.213 2.213 0 0 0 .916-1.793V23.635a.984.984 0 0 1-.492.852Z"></path>
  <path d="M47.271 42.101v-1.09l-14.747-8.4-1.78 1.015a2.211 2.211 0 0 1-2.157.134l5.575 7.474 12.193 2.654v.006a2.213 2.213 0 0 0 .916-1.793Z" opacity=".05"></path>
  <path d="m47.197 42.666-16.162-9.207-.288.162a2.211 2.211 0 0 1-2.157.136l5.575 7.476 12.19 2.655v.006a2.217 2.217 0 0 0 .842-1.226Z" opacity=".1"></path>
  <path fill="#28a8ea" d="M12.335 24.507v-.015h-.017l-.044-.03a.96.96 0 0 1-.456-.827V42.1a2.213 2.213 0 0 0 2.216 2.216h31.021a2.22 2.22 0 0 0 .547-.074.941.941 0 0 0 .266-.089.21.21 0 0 0 .089-.03 1.548 1.548 0 0 0 .34-.192c.03-.015.044-.015.059-.044Z"></path>
  <path d="M26.59 36.44V12.309a1.975 1.975 0 0 0-1.972-1.969h-9.8v11.014l-2.483 1.415h-.007l-.018.01a.984.984 0 0 0-.492.856v14.772h12.8a1.975 1.975 0 0 0 1.972-1.967Z" opacity=".1"></path>
  <path d="M25.113 37.918V13.787a1.975 1.975 0 0 0-1.969-1.969h-8.326v9.537l-2.483 1.415h-.007l-.018.01a.984.984 0 0 0-.492.856v16.249h11.326a1.975 1.975 0 0 0 1.969-1.967Z" opacity=".2"></path>
  <path d="M25.113 34.961V13.787a1.975 1.975 0 0 0-1.969-1.969h-8.326v9.537l-2.483 1.415h-.007l-.018.01a.984.984 0 0 0-.492.856V36.93h11.326a1.975 1.975 0 0 0 1.969-1.969Z" opacity=".2"></path>
  <path d="M23.636 34.961V13.787a1.975 1.975 0 0 0-1.969-1.969h-6.849v9.537l-2.483 1.415h-.007l-.018.01a.984.984 0 0 0-.492.856V36.93h9.849a1.975 1.975 0 0 0 1.969-1.969Z" opacity=".2"></path>
  <path fill="#0078d4" d="M1.969 11.818h19.7a1.969 1.969 0 0 1 1.969 1.969v19.7a1.969 1.969 0 0 1-1.969 1.969h-19.7A1.969 1.969 0 0 1 0 33.484V13.787a1.969 1.969 0 0 1 1.969-1.969Z"></path>
  <path fill="#fff" d="M5.712 19.895a6.176 6.176 0 0 1 2.426-2.68 7.334 7.334 0 0 1 3.855-.967 6.82 6.82 0 0 1 3.564.916 6.116 6.116 0 0 1 2.361 2.56 8.268 8.268 0 0 1 .827 3.767 8.717 8.717 0 0 1-.852 3.938 6.262 6.262 0 0 1-2.43 2.65 7.091 7.091 0 0 1-3.7.941 6.986 6.986 0 0 1-3.646-.926 6.21 6.21 0 0 1-2.39-2.564 8.064 8.064 0 0 1-.838-3.721 8.944 8.944 0 0 1 .823-3.914Zm2.585 6.29a4.012 4.012 0 0 0 1.364 1.763 3.562 3.562 0 0 0 2.132.643 3.742 3.742 0 0 0 2.276-.663 3.845 3.845 0 0 0 1.325-1.768 6.834 6.834 0 0 0 .422-2.46 7.479 7.479 0 0 0-.4-2.491 3.943 3.943 0 0 0-1.279-1.832 3.526 3.526 0 0 0-2.256-.7 3.683 3.683 0 0 0-2.182.648 4.049 4.049 0 0 0-1.394 1.777 7.055 7.055 0 0 0-.01 5.082Z"></path>
  <path fill="none" d="M0 0h47.271v47.271H0Z"></path>
</svg>
